<svg width="127" height="45" viewBox="0 0 127 45" fill="none" xmlns="http://www.w3.org/2000/svg">
<path d="M0.70125 31.56C1.38125 27.68 2.64125 24.82 4.48125 22.98C6.32125 21.14 8.62125 20.22 11.3813 20.22C12.5813 20.22 13.6613 20.42 14.6212 20.82C15.6213 21.18 16.6813 21.72 17.8013 22.44C18.7213 23 19.5013 23.42 20.1413 23.7C20.8213 23.98 21.5213 24.12 22.2413 24.12C23.2813 24.12 24.1413 23.8 24.8213 23.16C25.5413 22.52 25.9813 21.56 26.1413 20.28H32.3813C31.7013 24.16 30.4213 27.02 28.5413 28.86C26.7013 30.7 24.4013 31.62 21.6413 31.62C20.4413 31.62 19.3613 31.44 18.4013 31.08C17.4813 30.68 16.4413 30.12 15.2813 29.4C14.2813 28.84 13.4613 28.42 12.8213 28.14C12.2213 27.86 11.5613 27.72 10.8413 27.72C9.80125 27.72 8.92125 28.06 8.20125 28.74C7.48125 29.38 7.02125 30.32 6.82125 31.56H0.70125ZM36.4491 9V1.26H50.9091V45H42.2691V9H36.4491ZM59.2073 22.56C59.2073 15.64 60.4473 10.22 62.9273 6.3C65.4473 2.38 69.6073 0.419998 75.4073 0.419998C81.2073 0.419998 85.3473 2.38 87.8273 6.3C90.3473 10.22 91.6073 15.64 91.6073 22.56C91.6073 29.52 90.3473 34.98 87.8273 38.94C85.3473 42.9 81.2073 44.88 75.4073 44.88C69.6073 44.88 65.4473 42.9 62.9273 38.94C60.4473 34.98 59.2073 29.52 59.2073 22.56ZM83.3273 22.56C83.3273 19.6 83.1273 17.12 82.7273 15.12C82.3673 13.08 81.6073 11.42 80.4473 10.14C79.3273 8.86 77.6473 8.22 75.4073 8.22C73.1673 8.22 71.4673 8.86 70.3073 10.14C69.1873 11.42 68.4273 13.08 68.0273 15.12C67.6673 17.12 67.4873 19.6 67.4873 22.56C67.4873 25.6 67.6673 28.16 68.0273 30.24C68.3873 32.28 69.1473 33.94 70.3073 35.22C71.4673 36.46 73.1673 37.08 75.4073 37.08C77.6473 37.08 79.3473 36.46 80.5073 35.22C81.6673 33.94 82.4273 32.28 82.7873 30.24C83.1473 28.16 83.3273 25.6 83.3273 22.56ZM117.316 45L110.476 34.68L104.416 45H95.4164L106.276 28.32L95.2964 11.76H104.776L111.556 22.02L117.676 11.76H126.676L115.756 28.32L126.796 45H117.316Z" fill="url(#paint0_linear_1401_244)"/>
<defs>
<linearGradient id="paint0_linear_1401_244" x1="-16.6875" y1="-57.45" x2="158.606" y2="-7.79689" gradientUnits="userSpaceOnUse">
<stop stop-color="#1D85FF"/>
<stop offset="1" stop-color="#8525FF"/>
</linearGradient>
</defs>
</svg>
