<svg width="141" height="46" viewBox="0 0 141 46" fill="none" xmlns="http://www.w3.org/2000/svg">
<path d="M0.611406 31.56C1.29141 27.68 2.55141 24.82 4.39141 22.98C6.23141 21.14 8.53141 20.22 11.2914 20.22C12.4914 20.22 13.5714 20.42 14.5314 20.82C15.5314 21.18 16.5914 21.72 17.7114 22.44C18.6314 23 19.4114 23.42 20.0514 23.7C20.7314 23.98 21.4314 24.12 22.1514 24.12C23.1914 24.12 24.0514 23.8 24.7314 23.16C25.4514 22.52 25.8914 21.56 26.0514 20.28H32.2914C31.6114 24.16 30.3314 27.02 28.4514 28.86C26.6114 30.7 24.3114 31.62 21.5514 31.62C20.3514 31.62 19.2714 31.44 18.3114 31.08C17.3914 30.68 16.3514 30.12 15.1914 29.4C14.1914 28.84 13.3714 28.42 12.7314 28.14C12.1314 27.86 11.4714 27.72 10.7514 27.72C9.71141 27.72 8.83141 28.06 8.11141 28.74C7.39141 29.38 6.93141 30.32 6.73141 31.56H0.611406ZM37.4992 12.78C37.6992 8.78 39.0992 5.7 41.6992 3.54C44.3392 1.34 47.7992 0.239997 52.0792 0.239997C54.9992 0.239997 57.4992 0.759997 59.5792 1.8C61.6592 2.8 63.2192 4.18 64.2592 5.94C65.3392 7.66 65.8792 9.62 65.8792 11.82C65.8792 14.34 65.2192 16.48 63.8992 18.24C62.6192 19.96 61.0792 21.12 59.2792 21.72V21.96C61.5992 22.68 63.3992 23.96 64.6792 25.8C65.9992 27.64 66.6592 30 66.6592 32.88C66.6592 35.28 66.0992 37.42 64.9792 39.3C63.8992 41.18 62.2792 42.66 60.1192 43.74C57.9992 44.78 55.4392 45.3 52.4392 45.3C47.9192 45.3 44.2392 44.16 41.3992 41.88C38.5592 39.6 37.0592 36.24 36.8992 31.8H45.0592C45.1392 33.76 45.7992 35.34 47.0392 36.54C48.3192 37.7 50.0592 38.28 52.2592 38.28C54.2992 38.28 55.8592 37.72 56.9392 36.6C58.0592 35.44 58.6192 33.96 58.6192 32.16C58.6192 29.76 57.8592 28.04 56.3392 27C54.8192 25.96 52.4592 25.44 49.2592 25.44H47.5192V18.54H49.2592C54.9392 18.54 57.7792 16.64 57.7792 12.84C57.7792 11.12 57.2592 9.78 56.2192 8.82C55.2192 7.86 53.7592 7.38 51.8392 7.38C49.9592 7.38 48.4992 7.9 47.4592 8.94C46.4592 9.94 45.8792 11.22 45.7192 12.78H37.4992ZM73.2972 22.56C73.2972 15.64 74.5372 10.22 77.0172 6.3C79.5372 2.38 83.6972 0.419998 89.4972 0.419998C95.2972 0.419998 99.4372 2.38 101.917 6.3C104.437 10.22 105.697 15.64 105.697 22.56C105.697 29.52 104.437 34.98 101.917 38.94C99.4372 42.9 95.2972 44.88 89.4972 44.88C83.6972 44.88 79.5372 42.9 77.0172 38.94C74.5372 34.98 73.2972 29.52 73.2972 22.56ZM97.4172 22.56C97.4172 19.6 97.2172 17.12 96.8172 15.12C96.4572 13.08 95.6972 11.42 94.5372 10.14C93.4172 8.86 91.7372 8.22 89.4972 8.22C87.2572 8.22 85.5572 8.86 84.3972 10.14C83.2772 11.42 82.5172 13.08 82.1172 15.12C81.7572 17.12 81.5772 19.6 81.5772 22.56C81.5772 25.6 81.7572 28.16 82.1172 30.24C82.4772 32.28 83.2372 33.94 84.3972 35.22C85.5572 36.46 87.2572 37.08 89.4972 37.08C91.7372 37.08 93.4372 36.46 94.5972 35.22C95.7572 33.94 96.5172 32.28 96.8772 30.24C97.2372 28.16 97.4172 25.6 97.4172 22.56ZM131.406 45L124.566 34.68L118.506 45H109.506L120.366 28.32L109.386 11.76H118.866L125.646 22.02L131.766 11.76H140.766L129.846 28.32L140.886 45H131.406Z" fill="url(#paint0_linear_1401_244)"/>
<defs>
<linearGradient id="paint0_linear_1401_244" x1="-9.6875" y1="-57.45" x2="165.606" y2="-7.79689" gradientUnits="userSpaceOnUse">
<stop stop-color="#1D85FF"/>
<stop offset="1" stop-color="#8525FF"/>
</linearGradient>
</defs>
</svg>
