<svg width="144" height="45" viewBox="0 0 144 45" fill="none" xmlns="http://www.w3.org/2000/svg">
<path d="M0.26375 31.56C0.94375 27.68 2.20375 24.82 4.04375 22.98C5.88375 21.14 8.18375 20.22 10.9438 20.22C12.1438 20.22 13.2238 20.42 14.1837 20.82C15.1838 21.18 16.2438 21.72 17.3638 22.44C18.2838 23 19.0638 23.42 19.7038 23.7C20.3838 23.98 21.0838 24.12 21.8038 24.12C22.8438 24.12 23.7038 23.8 24.3838 23.16C25.1038 22.52 25.5438 21.56 25.7038 20.28H31.9438C31.2638 24.16 29.9838 27.02 28.1038 28.86C26.2638 30.7 23.9638 31.62 21.2038 31.62C20.0038 31.62 18.9238 31.44 17.9638 31.08C17.0438 30.68 16.0038 30.12 14.8438 29.4C13.8438 28.84 13.0238 28.42 12.3838 28.14C11.7838 27.86 11.1238 27.72 10.4038 27.72C9.36375 27.72 8.48375 28.06 7.76375 28.74C7.04375 29.38 6.58375 30.32 6.38375 31.56H0.26375ZM66.4316 8.52H46.9916V18.78C47.8316 17.74 49.0316 16.9 50.5916 16.26C52.1516 15.58 53.8116 15.24 55.5716 15.24C58.7716 15.24 61.3916 15.94 63.4316 17.34C65.4716 18.74 66.9516 20.54 67.8716 22.74C68.7916 24.9 69.2516 27.22 69.2516 29.7C69.2516 34.3 67.9316 38 65.2916 40.8C62.6916 43.6 58.9716 45 54.1316 45C49.5716 45 45.9316 43.86 43.2116 41.58C40.4916 39.3 38.9516 36.32 38.5916 32.64H46.7516C47.1116 34.24 47.9116 35.52 49.1516 36.48C50.4316 37.44 52.0516 37.92 54.0116 37.92C56.3716 37.92 58.1516 37.18 59.3516 35.7C60.5516 34.22 61.1516 32.26 61.1516 29.82C61.1516 27.34 60.5316 25.46 59.2916 24.18C58.0916 22.86 56.3116 22.2 53.9516 22.2C52.2716 22.2 50.8716 22.62 49.7516 23.46C48.6316 24.3 47.8316 25.42 47.3516 26.82H39.3116V1.14H66.4316V8.52ZM75.6448 22.56C75.6448 15.64 76.8848 10.22 79.3648 6.3C81.8848 2.38 86.0448 0.419998 91.8448 0.419998C97.6448 0.419998 101.785 2.38 104.265 6.3C106.785 10.22 108.045 15.64 108.045 22.56C108.045 29.52 106.785 34.98 104.265 38.94C101.785 42.9 97.6448 44.88 91.8448 44.88C86.0448 44.88 81.8848 42.9 79.3648 38.94C76.8848 34.98 75.6448 29.52 75.6448 22.56ZM99.7648 22.56C99.7648 19.6 99.5648 17.12 99.1648 15.12C98.8048 13.08 98.0448 11.42 96.8848 10.14C95.7648 8.86 94.0848 8.22 91.8448 8.22C89.6048 8.22 87.9048 8.86 86.7448 10.14C85.6248 11.42 84.8648 13.08 84.4648 15.12C84.1048 17.12 83.9248 19.6 83.9248 22.56C83.9248 25.6 84.1048 28.16 84.4648 30.24C84.8248 32.28 85.5848 33.94 86.7448 35.22C87.9048 36.46 89.6048 37.08 91.8448 37.08C94.0848 37.08 95.7848 36.46 96.9448 35.22C98.1048 33.94 98.8648 32.28 99.2248 30.24C99.5848 28.16 99.7648 25.6 99.7648 22.56ZM133.754 45L126.914 34.68L120.854 45H111.854L122.714 28.32L111.734 11.76H121.214L127.994 22.02L134.114 11.76H143.114L132.194 28.32L143.234 45H133.754Z" fill="url(#paint0_linear_1401_244)"/>
<defs>
<linearGradient id="paint0_linear_1401_244" x1="-8.6875" y1="-57.45" x2="166.606" y2="-7.79689" gradientUnits="userSpaceOnUse">
<stop stop-color="#1D85FF"/>
<stop offset="1" stop-color="#8525FF"/>
</linearGradient>
</defs>
</svg>
