<svg width="104" height="66" viewBox="0 0 104 66" fill="none" xmlns="http://www.w3.org/2000/svg">
<path d="M22.4611 0.0295018C19.2013 0.328989 15.2388 1.37719 12.9927 2.54059C10.8732 3.63487 7.53282 5.75431 6.48461 6.67581C6.27727 6.86011 6.10449 7.102 6.10449 7.21719C6.10449 7.55124 7.16422 8.42666 9.57163 10.0854C10.8041 10.9377 13.8336 13.0687 16.2986 14.808C18.7751 16.5474 20.8715 17.9642 20.9637 17.9527C21.0558 17.9527 21.7124 17.6762 22.4035 17.3537C25.145 16.0636 26.9649 15.4416 29.0268 15.1075C35.7883 14.0248 42.5958 16.2248 47.2494 20.9936C48.5625 22.3528 48.9542 22.8251 49.9102 24.2649C51.327 26.4074 52.4444 29.0798 53.1009 31.8673C53.2391 32.4663 53.3774 33.0422 53.4119 33.1343C53.5156 33.3878 53.8842 30.5541 53.9763 28.8724C54.2182 24.4607 52.8706 18.8281 50.5898 14.6468C47.9751 9.85498 42.7801 5.01711 37.6082 2.56362C35.3275 1.48086 32.2751 0.663032 28.9692 0.248358C27.61 0.0755767 23.4747 -0.0626481 22.4611 0.0295018Z" fill="white"/>
<path d="M37.4356 21.6847C37.7696 22.9172 38.4262 24.7372 38.9906 26.0273C39.6357 27.4902 40.6033 28.8033 42.4463 30.7039C47.8255 36.2444 54.0917 39.1356 60.7034 39.1241C66.0021 39.1126 70.8054 37.1429 75.8506 32.9155C78.1774 30.9688 83.2802 26.4074 83.3032 26.2577C83.3147 26.1655 81.2298 24.6105 81.0916 24.6105C81.0571 24.6105 79.813 25.6587 78.3271 26.9373C73.2013 31.3259 71.7154 32.4202 69.0545 33.7103C63.3297 36.5093 57.2709 37.0968 52.0759 35.3575C48.5051 34.171 44.6924 31.683 42.1468 28.8839C40.4305 26.9833 39.3707 25.3362 38.1728 22.7099C37.7581 21.8345 37.378 21.0512 37.3204 20.9936C37.2628 20.936 37.3089 21.2355 37.4356 21.6847Z" fill="white"/>
<path d="M85.4695 26.0734C75.3215 35.0349 71.5779 37.6727 66.8322 39.2393C61.5682 40.9671 56.3847 40.4372 50.5102 37.5691C45.6838 35.2192 41.9057 31.9479 38.7265 27.375C37.1369 25.1058 36.7453 24.7602 36.9065 25.7969C37.1139 27.087 39.1297 30.3468 40.9035 32.2935C44.9005 36.636 52.4338 41.0362 57.479 41.9692C59.0225 42.2457 63.7222 42.2457 65.3693 41.9692C67.6846 41.5661 70.2648 40.6561 73.3173 39.1817C75.8975 37.9261 77.775 36.6936 79.7678 34.9889C82.4516 32.6851 89.8466 26.1885 89.8236 26.154C89.5011 25.8545 87.5659 24.3801 87.4853 24.3916C87.4277 24.3916 86.5177 25.1519 85.4695 26.0734Z" fill="white"/>
<path d="M94.5687 29.0683C91.7466 31.6484 83.9599 38.2832 81.6677 40.0571C79.5713 41.6928 77.3942 43.0059 75.125 44.0196C67.8567 47.2679 60.6345 47.2909 52.8132 44.1117C49.9912 42.9598 46.5471 40.9556 44.347 39.1702C43.2181 38.2602 42.7344 37.9377 42.6537 38.0183C42.3773 38.2832 45.9711 41.854 48.344 43.651C50.7399 45.4824 53.8039 46.8762 56.9254 47.5789C60.7612 48.4428 66.7394 48.5695 70.5982 47.8783C73.8349 47.2909 76.8759 46.0238 80.009 43.9505C82.7735 42.119 85.8375 39.6885 88.5213 37.2235C89.2816 36.5209 90.8942 35.0926 92.0921 34.0559C96.6075 30.1625 97.5635 29.3101 97.5059 29.218C97.4829 29.1719 97.0797 28.8724 96.6075 28.5499L95.7666 27.974L94.5687 29.0683Z" fill="white"/>
<path d="M87.7501 29.7133C86.0223 31.2107 80.5394 35.7606 79.6294 36.4402C77.3717 38.168 74.1234 40.0571 71.8197 40.9671C69.5044 41.9001 66.6362 42.7179 64.3325 43.1211C62.5356 43.4206 59.5177 43.3975 57.8474 43.0635C54.3573 42.3608 50.7404 40.7137 46.5936 37.9376C44.3475 36.4287 42.5966 35.0004 39.8091 32.3971C39.1295 31.7751 38.542 31.2913 38.5075 31.3374C38.3923 31.4526 38.9452 32.4778 39.5672 33.2956C41.6867 36.1177 45.7873 39.4812 49.8189 41.6928C53.1708 43.5358 57.0296 44.8028 60.5774 45.229C61.1764 45.2981 62.5471 45.3557 63.6298 45.3557C68.03 45.3442 71.8773 44.4227 75.9088 42.4069C79.065 40.8288 81.4954 39.0665 85.4118 35.5533C86.5521 34.5281 88.2454 33.0422 89.1784 32.2704L90.8717 30.8536L89.8695 30.0012C89.3166 29.529 88.8098 29.1028 88.7292 29.0682C88.6485 29.0106 88.2454 29.2756 87.7501 29.7133Z" fill="white"/>
<path d="M10.5977 60.3186V65.502H11.5767H12.5558V60.3186V55.1351H11.5767H10.5977V60.3186Z" fill="white"/>
<path d="M14.5137 60.3186V65.502H15.4352H16.3567V64.9837C16.3567 64.6957 16.3797 64.4653 16.4143 64.4653C16.4488 64.4653 16.7022 64.6381 16.9787 64.857C17.2666 65.0758 17.6928 65.3177 17.9347 65.3983C18.6028 65.6287 19.7777 65.5826 20.3997 65.3062C22.6344 64.3041 23.2794 60.7217 21.5747 58.8211C20.8144 57.9688 20.0772 57.6232 19.0521 57.6117C18.3264 57.6117 18.1306 57.6577 17.3934 58.0379C16.9211 58.2798 16.5295 58.4641 16.5179 58.441C16.4949 58.4295 16.4488 57.6693 16.4027 56.7708L16.3221 55.1351H15.4237H14.5137V60.3186ZM19.4322 59.6159C19.5704 59.685 19.8123 59.9154 19.962 60.1228C20.8375 61.2861 20.5495 62.9909 19.3861 63.5553C17.8195 64.3156 16.253 62.9679 16.587 61.1479C16.8635 59.662 18.1881 58.9363 19.4322 59.6159Z" fill="white"/>
<path d="M88.0029 57.8766C88.0029 59.3971 88.0375 61.7238 88.0836 63.0715L88.1527 65.5135L89.0281 65.479C89.892 65.4444 89.9035 65.4444 90.0878 65.0528C90.203 64.8109 90.3067 64.7072 90.3528 64.7993C90.5025 65.0412 91.2858 65.3638 92.0114 65.502C93.3591 65.7439 94.6262 65.2025 95.4556 64.0391C95.6629 63.7396 95.8933 63.3019 95.9624 63.0485C96.1121 62.4956 96.1121 60.618 95.9624 60.1112C95.5823 58.8326 94.2346 57.7384 92.8638 57.6001C92.046 57.508 91.4931 57.6692 90.7329 58.1991C90.4334 58.418 90.1685 58.5907 90.1339 58.5907C90.0993 58.5907 90.0763 57.8075 90.0763 56.8629V55.1351H89.0396H88.0029V57.8766ZM92.9905 59.5698C94.0618 60.0191 94.4304 61.6432 93.7393 62.8642C93.4283 63.4171 93.0366 63.6475 92.2879 63.7396C91.5622 63.8203 90.9748 63.5668 90.6062 63.0024C89.7999 61.7814 90.1339 60.0651 91.2858 59.5583C91.7465 59.351 92.4837 59.3625 92.9905 59.5698Z" fill="white"/>
<path d="M3.76663 55.6765C3.65144 55.7111 3.45562 55.9645 3.32891 56.2524C2.63779 57.8651 0 65.1219 0 65.4098C0 65.4674 0.437712 65.4905 0.990611 65.4789L1.98122 65.4444L2.32678 64.6266C2.67235 63.7972 2.67235 63.7972 3.19069 63.7281C3.47866 63.6935 4.35408 63.659 5.13736 63.659H6.54264L6.79605 64.3962C6.92276 64.7993 7.1301 65.214 7.24528 65.3177C7.52173 65.5711 8.68513 65.6978 8.90398 65.5135C9.20347 65.2716 8.90398 64.2695 6.91124 58.8211C6.3929 57.3928 5.90911 56.0912 5.85152 55.9069C5.73633 55.6074 5.71329 55.5959 4.86091 55.6074C4.3656 55.6189 3.88181 55.6419 3.76663 55.6765ZM5.29862 60.0882C5.62114 60.9982 5.85152 61.816 5.81696 61.9081C5.77089 62.0348 5.52899 62.0579 4.61901 62.0233C3.98548 62.0118 3.4441 61.9542 3.39803 61.9081C3.30588 61.816 3.91637 59.9154 4.34256 58.9478C4.49231 58.6023 4.63053 58.3489 4.66509 58.3834C4.69964 58.4064 4.98761 59.1782 5.29862 60.0882Z" fill="white"/>
<path d="M72.6603 55.6765L72.1074 55.7226V60.618V65.502H73.0059C73.5127 65.502 74.6991 65.5365 75.6552 65.5826L77.406 65.6517V64.7187V63.7742H75.851C74.9986 63.7742 74.2845 63.7627 74.2729 63.7396C74.2614 63.7281 74.2154 61.8966 74.1808 59.685L74.1232 55.6535L73.6625 55.642C73.409 55.642 72.9598 55.6535 72.6603 55.6765Z" fill="white"/>
<path d="M33.8648 56.6901V57.6692H33.4847C32.9779 57.6692 32.8281 57.842 32.8281 58.4295C32.8281 59.1667 32.9088 59.2819 33.4041 59.2819H33.8418L33.8878 61.7238C33.9224 64.0967 33.9339 64.1888 34.1989 64.569C34.5675 65.0873 35.3047 65.3868 36.3644 65.4674C37.4241 65.5481 37.5508 65.4444 37.5508 64.4423V63.7742H36.9403C35.9151 63.7742 35.9036 63.7396 35.7769 61.5511C35.7193 60.5144 35.7078 59.5813 35.7424 59.4662C35.8 59.3164 35.9843 59.2819 36.6869 59.2819H37.5508V58.4756V57.6692H36.6293H35.7078V56.6901V55.7111H34.7863H33.8648V56.6901Z" fill="white"/>
<path d="M26.0094 57.7268C25.3413 57.9457 24.3392 58.8326 23.936 59.5929C23.3025 60.7563 23.4292 62.8872 24.2125 64.0621C25.3183 65.7208 27.6911 66.0549 29.2462 64.7417L29.6032 64.4422V64.9721V65.502H30.5823H31.5614V61.5856V57.6692H30.5823H29.6032V58.1415C29.6032 58.6138 29.6032 58.6138 29.3498 58.4295C28.3477 57.6923 27 57.4158 26.0094 57.7268ZM28.4514 59.6389C28.6702 59.7772 28.9121 59.973 28.9927 60.0766C29.5226 60.7447 29.6493 61.9772 29.2577 62.7375C28.9006 63.4401 28.4168 63.7166 27.5299 63.7166C26.6429 63.7166 26.1822 63.4632 25.8481 62.772C25.5371 62.1615 25.5486 60.8599 25.8597 60.3416C26.378 59.4662 27.622 59.1321 28.4514 59.6389Z" fill="white"/>
<path d="M42.2741 57.796C41.9977 57.9227 41.5945 58.153 41.3872 58.3143C41.1914 58.4641 40.9956 58.5908 40.961 58.5908C40.9264 58.5908 40.8919 58.3834 40.8919 58.1185V57.6462L40.028 57.6923C39.5442 57.7153 39.1065 57.796 39.0259 57.8766C38.8416 58.0609 38.807 65.191 38.9913 65.3638C39.0604 65.4214 39.5096 65.502 40.0049 65.5366L40.8919 65.5941L40.9034 64.0852C40.9149 61.8045 41.0416 60.595 41.3066 60.307C41.6176 59.95 42.3663 59.6274 42.8846 59.6274H43.3223L43.2878 58.6138C43.2532 57.4504 43.1611 57.3813 42.2741 57.796Z" fill="white"/>
<path d="M46.9855 57.7153C45.7761 58.0378 44.8776 58.8326 44.4629 59.9499C43.7488 61.8621 44.2901 63.9009 45.7645 64.8915C46.4902 65.3753 47.0777 65.5365 48.1835 65.5365C48.9783 65.5365 49.1741 65.4905 49.9343 65.1103C51.4317 64.3731 51.9846 63.4286 51.9962 61.5856C51.9962 60.6065 51.9616 60.4222 51.6736 59.8117C50.8097 58.0494 48.9091 57.197 46.9855 57.7153ZM48.6442 59.4431C49.4966 59.7541 49.8537 60.2725 49.9574 61.4013C50.038 62.3458 49.8652 62.8642 49.2662 63.371C48.8631 63.7166 48.7133 63.7742 48.218 63.7742C46.8818 63.7626 46.1907 63.0139 46.1907 61.5856C46.1907 60.5259 46.4902 59.9615 47.262 59.5813C47.9301 59.2473 48.0337 59.2358 48.6442 59.4431Z" fill="white"/>
<path d="M55.2671 57.7038C54.1037 58.0378 53.332 58.9018 53.332 59.8924C53.332 61.0442 53.7582 61.4589 55.6588 62.1731C57.2599 62.772 57.5939 62.9679 57.5939 63.2674C57.5939 63.682 57.2138 63.9124 56.5112 63.9354C55.9467 63.947 55.8431 63.9124 55.4975 63.5784C54.9792 63.0715 54.553 62.9333 53.8273 63.0255C53.2744 63.0946 53.2168 63.1291 53.2168 63.3825C53.2168 64.0621 53.8388 64.7533 54.887 65.2255C55.4399 65.479 55.7394 65.5481 56.442 65.5481C57.5709 65.5481 58.1929 65.3522 58.7573 64.8454C59.2987 64.3616 59.5521 63.8203 59.5521 63.1752C59.5521 62.0809 58.8495 61.4935 56.7646 60.8369C55.3708 60.3992 55.0483 60.0651 55.4975 59.5238C55.9352 58.9824 57.1677 59.1667 57.4557 59.8002C57.5363 59.9615 57.6861 60.0882 57.8013 60.0882C57.928 60.0882 58.3426 60.1227 58.7458 60.1688L59.4715 60.2379L59.3908 59.7426C59.2526 58.8442 58.6076 58.0954 57.7437 57.8075C57.1101 57.6001 55.8546 57.5425 55.2671 57.7038Z" fill="white"/>
<path d="M63.0655 57.6577C62.4205 57.842 62.1095 58.0033 61.6833 58.3834C61.1765 58.8211 60.9346 59.328 60.9346 59.9154C60.9346 61.0903 61.7524 61.7699 63.9294 62.4035C64.9316 62.7029 65.3578 63.0485 65.208 63.4517C65.0928 63.7972 64.3902 64.0391 63.8258 63.9354C63.5608 63.8894 63.2614 63.7051 63.0195 63.4401C62.6394 63.0485 62.6048 63.037 61.7754 63.037C61.188 63.037 60.8885 63.0831 60.8309 63.1867C60.5314 63.6705 61.6718 64.9952 62.6624 65.3292C63.6415 65.6517 64.9777 65.6172 65.784 65.2486C66.6939 64.8339 67.0741 64.304 67.1317 63.3595C67.2123 62.1731 66.8091 61.7354 65.0122 61.0558C64.5745 60.8945 63.9525 60.6526 63.6184 60.5374C62.743 60.2034 62.6739 59.6159 63.4687 59.2819C63.9525 59.0861 64.4363 59.2128 64.9777 59.6735C65.4384 60.0652 65.8416 60.2034 66.5096 60.2034C67.1432 60.2034 67.2238 60.0767 66.9819 59.4431C66.6939 58.6944 66.1065 58.0724 65.4499 57.842C64.8049 57.6232 63.5493 57.5195 63.0655 57.6577Z" fill="white"/>
<path d="M80.1935 57.8996C78.9956 58.4986 78.4081 59.3856 78.1893 60.8945C77.9589 62.4611 78.3275 63.682 79.3296 64.6381C80.0783 65.3523 80.6312 65.5481 81.8177 65.479C82.6355 65.4329 82.8774 65.3753 83.4418 65.0643C84.1099 64.6842 84.1444 64.6842 84.2251 65.214C84.2596 65.4214 84.3633 65.4444 85.2157 65.479L86.1602 65.5135V63.3365C86.1602 62.1385 86.1948 60.3762 86.2409 59.4086L86.31 57.6577L85.2272 57.6923L84.1444 57.7269L84.1099 58.1415L84.0753 58.5677L83.4994 58.1761C82.3936 57.4389 81.3108 57.3467 80.1935 57.8996ZM82.7046 59.4662C83.5685 59.7081 84.0753 60.5144 84.0868 61.6202C84.0868 62.4726 83.8334 63.014 83.2345 63.4517C82.8083 63.7627 82.7046 63.7972 82.1056 63.7396C81.737 63.7051 81.2763 63.5899 81.0689 63.4632C80.5391 63.1522 80.1705 62.3919 80.1705 61.5971C80.182 60.4568 80.7003 59.6966 81.6679 59.4201C82.0711 59.3049 82.1747 59.3049 82.7046 59.4662Z" fill="white"/>
<path d="M99.4297 57.6692C98.8422 57.7959 98.3239 58.0954 97.8516 58.5907C97.5521 58.9017 97.506 59.04 97.4715 59.7887C97.4484 60.2725 97.483 60.7332 97.5521 60.8714C97.794 61.3207 98.4621 61.7123 99.8789 62.2191C101.48 62.7951 101.826 63.037 101.618 63.4747C101.468 63.8087 100.72 64.0621 100.213 63.9469C100.04 63.9124 99.6715 63.682 99.3951 63.4516C98.9344 63.06 98.8422 63.0254 98.1741 63.0254C97.3102 63.0254 97.1374 63.1522 97.3102 63.6475C97.5406 64.2925 98.0244 64.7993 98.7846 65.1679C99.4297 65.4905 99.6255 65.525 100.524 65.5365C101.33 65.5365 101.664 65.4789 102.148 65.2716C103.265 64.7878 103.841 63.7857 103.553 62.8181C103.254 61.816 102.736 61.4474 100.57 60.7102C99.1993 60.2494 98.9113 59.708 99.8213 59.3279C100.432 59.0745 100.973 59.2012 101.445 59.7196C101.803 60.1112 101.883 60.1458 102.632 60.1803L103.438 60.2264V59.8117C103.438 59.5698 103.358 59.2358 103.265 59.063C103.024 58.5907 102.252 57.9572 101.745 57.8075C101.1 57.6232 99.9941 57.554 99.4297 57.6692Z" fill="white"/>
</svg>
