<svg width="114" height="104" viewBox="0 0 114 104" fill="none" xmlns="http://www.w3.org/2000/svg">
<g clip-path="url(#clip0_982_1898)">
<path d="M98.1562 60.5667C98.1563 62.6167 97.6223 64.6305 96.6081 66.4048C95.5939 68.1792 94.1354 69.6513 92.3797 70.6728L65.3249 86.4121C63.5796 87.4274 61.6019 87.9617 59.589 87.9617C57.5761 87.9617 55.5983 87.4274 53.8531 86.4121L26.7982 70.6728C25.0424 69.6514 23.5838 68.1793 22.5695 66.4049C21.5552 64.6306 21.0211 62.6168 21.0211 60.5667V29.1825C21.0211 27.1324 21.5551 25.1186 22.5693 23.3443C23.5835 21.5699 25.042 20.0978 26.7976 19.0764L53.8525 3.33704C55.5978 2.3217 57.5755 1.78738 59.5884 1.78738C61.6013 1.78738 63.579 2.3217 65.3243 3.33704L92.3792 19.0764C94.1349 20.0977 95.5935 21.5698 96.6078 23.3442C97.6221 25.1185 98.1562 27.1324 98.1562 29.1825V60.5667Z" fill="#1D86CC"/>
<path d="M56.2552 7.71899L29.5457 23.3377C28.5303 23.9312 27.6871 24.785 27.101 25.8132C26.5149 26.8413 26.2066 28.0076 26.207 29.1947L26.2238 60.4664C26.2245 61.6517 26.533 62.8159 27.1184 63.8424C27.7038 64.8688 28.5454 65.7214 29.559 66.3147L56.2996 81.9648C57.3147 82.5582 58.466 82.8705 59.6382 82.8705C60.8103 82.8705 61.9618 82.5582 62.9769 81.9648L89.6864 66.3508C90.7019 65.7573 91.545 64.9035 92.1311 63.8753C92.7171 62.8471 93.0254 61.6809 93.025 60.4938L93.0084 29.2221C93.0076 28.0369 92.6989 26.8728 92.1135 25.8464C91.5281 24.8201 90.6865 23.9676 89.6731 23.3744L62.9326 7.72365C61.9175 7.1303 60.766 6.81793 59.5939 6.81793C58.4218 6.81793 57.2703 7.1303 56.2552 7.72365V7.71899Z" fill="white"/>
<path d="M47.4404 71.3948C47.4816 71.1911 47.5716 71.0007 47.7028 70.8406C55.6926 57.1148 63.6839 43.3896 71.6764 29.665C71.7875 29.4744 71.8905 29.2786 71.9849 29.1078C71.9146 28.9837 71.8347 29.0093 71.7668 29.0093C68.3521 29.0216 64.9374 29.0437 61.5204 29.0396C61.3744 29.037 61.2311 29.0797 61.1098 29.162C60.9884 29.2444 60.8949 29.3623 60.8418 29.5001C58.266 33.8127 55.6869 38.1241 53.1046 42.4344C47.6341 51.5721 42.1631 60.7096 36.6915 69.8469C36.6432 69.928 36.5925 70.0072 36.5493 70.0906C36.4526 70.2794 36.3427 70.3091 36.1464 70.1937C35.2973 69.6861 34.4391 69.1948 33.537 68.6697L57.8864 29.1323C57.8341 28.9715 57.7263 29.0117 57.6435 29.0088C56.3385 28.9691 55.0331 28.912 53.7292 28.9004C51.8976 28.8454 50.0722 29.1433 48.3504 29.7781C46.7823 30.3659 45.4497 31.4613 44.5593 32.8942C40.1104 39.9195 35.6446 46.9339 31.162 53.9375C31.0918 54.0482 31.017 54.1566 30.9444 54.2662C30.6877 54.2662 30.7256 54.0517 30.702 53.9019C30.6793 53.6764 30.674 53.4494 30.686 53.223C30.686 45.4766 30.7125 37.7302 30.6624 29.9844C30.6222 29.3169 30.7806 28.6526 31.1174 28.0774C31.4542 27.5022 31.9539 27.0426 32.5516 26.7581C38.4352 23.3622 44.2807 19.8963 50.1453 16.4661C52.7627 14.9351 55.3882 13.4187 57.9866 11.8556C58.4754 11.5236 59.0506 11.3463 59.6392 11.3463C60.2278 11.3463 60.8031 11.5236 61.2919 11.8556C66.0697 14.6944 70.89 17.4673 75.6925 20.2658C79.3148 22.3774 82.9389 24.4854 86.5646 26.5896C86.8242 26.7394 87.0768 26.8997 87.3376 27.0471C87.7616 27.2752 88.1122 27.6214 88.348 28.0448C88.5839 28.4683 88.6951 28.9512 88.6685 29.4365C88.6754 37.8629 88.6754 46.2892 88.6685 54.7155C88.6854 54.9228 88.6631 55.1315 88.6028 55.3303C88.315 55.6118 88.2109 55.2959 88.1062 55.1462C87.6744 54.5313 87.287 53.8839 86.8858 53.2475C83.673 48.1558 80.4494 43.071 77.2151 37.993C76.1283 36.2767 75.0277 34.5674 73.9524 32.8441C73.7014 32.442 73.656 32.4361 73.405 32.868C71.7825 35.6475 70.1609 38.4276 68.5403 41.2082C68.4514 41.3628 68.4131 41.5419 68.4309 41.7199C68.4486 41.8978 68.5216 42.0656 68.6393 42.199C69.9755 44.3817 71.3092 46.566 72.6405 48.7518L79.4659 59.9297C80.3869 61.4403 81.3094 62.9495 82.2335 64.4573C82.405 64.6595 82.5015 64.9159 82.5064 65.1823C82.3216 65.5542 81.9364 65.6585 81.6158 65.8275C81.0896 66.2122 80.5113 66.5178 79.8987 66.7349C79.5683 66.6515 79.4514 66.3497 79.2949 66.1025C77.1817 62.7655 75.0957 59.4116 72.9963 56.0664C70.8371 52.6279 68.6883 49.1767 66.5198 45.7417C66.2418 45.3011 66.1974 45.2982 65.9361 45.7417C64.0497 48.9546 62.1893 52.1827 60.2983 55.3921C60.2016 55.5425 60.1541 55.7199 60.1624 55.8992C60.1708 56.0784 60.2347 56.2505 60.345 56.391C62.8922 60.3656 65.3806 64.3752 67.9008 68.3696C68.6036 69.4827 69.3116 70.5918 70.0018 71.713C70.1365 71.931 70.3207 72.1484 70.1987 72.4433C69.5371 72.9644 68.8232 73.4137 68.0688 73.7837C65.7149 75.1703 63.3598 76.555 61.0035 77.9378C60.6261 78.1845 60.1863 78.3157 59.737 78.3157C59.2878 78.3157 58.8481 78.1845 58.4706 77.9378C55 75.905 51.523 73.8814 48.0396 71.8669C47.7997 71.7703 47.5918 71.6066 47.4404 71.3948Z" fill="#2D374B"/>
<path d="M88.5 55.4148C88.5051 55.2068 88.5154 54.9993 88.5154 54.7918C88.5154 46.3846 88.5182 37.9777 88.5236 29.5712C88.5531 29.0613 88.4348 28.5539 88.1835 28.1111C87.9321 27.6683 87.5586 27.3094 87.1086 27.0786C78.3889 22.0177 69.6754 16.9453 60.9684 11.8614C60.5763 11.6032 60.119 11.4651 59.6513 11.4639C59.1836 11.4627 58.7255 11.5983 58.3321 11.8544C53.4967 14.6996 48.6552 17.5374 43.8075 20.3678C39.9182 22.6473 36.0291 24.9273 32.1401 27.208C31.7247 27.4261 31.3804 27.761 31.1485 28.1725C30.9166 28.5839 30.807 29.0544 30.8328 29.5275C30.8528 37.5944 30.864 45.6613 30.8667 53.7282C30.8667 53.9077 30.7948 54.1076 30.9496 54.2661C30.0286 55.8187 29.0167 57.3106 28.0467 58.8299C27.5609 59.5907 27.0731 60.3501 26.5835 61.1081C26.5052 61.2293 26.4148 61.3412 26.2599 61.5574C26.2484 61.3033 26.2363 61.1628 26.2363 61.023C26.2363 50.3848 26.2383 39.7466 26.2421 29.1084C26.2164 27.9277 26.5125 26.7627 27.0978 25.7411C27.6831 24.7196 28.5349 23.8809 29.56 23.3173C32.9413 21.2845 36.3675 19.3275 39.7712 17.3309C42.6431 15.6472 45.5051 13.9507 48.3752 12.2641C51.0519 10.6906 53.7016 9.0699 56.4237 7.58204C57.4663 6.99427 58.6457 6.70073 59.8386 6.7321C61.0315 6.76347 62.1943 7.1186 63.2053 7.76037C65.3927 9.01686 67.5709 10.2967 69.752 11.566C71.8036 12.7615 73.8551 13.9577 75.9062 15.1548C77.7966 16.2566 79.6876 17.3573 81.5791 18.4568C83.4545 19.5474 85.3301 20.6374 87.2059 21.7269C88.0302 22.2065 88.8539 22.6867 89.673 23.1751C90.5773 23.6931 91.3549 24.4106 91.9479 25.2744C92.5408 26.1383 92.9339 27.1262 93.0981 28.1649C93.1369 28.4649 93.1488 28.7678 93.1338 29.0699C93.1338 39.538 93.1351 50.0062 93.1378 60.4746C93.1432 61.4692 92.9312 62.4528 92.517 63.3548C92.1028 64.2567 91.4967 65.0548 90.7421 65.6917C90.3115 66.0242 89.8485 66.3114 89.3605 66.549C86.559 68.2037 83.7537 69.8516 80.9442 71.4927C77.9589 73.2411 74.9722 74.9865 71.9843 76.7291C69.1134 78.4129 66.2457 80.103 63.381 81.7993C62.6677 82.2851 61.865 82.6203 61.0208 82.7848C59.6185 83.0619 58.1654 82.8748 56.8763 82.251C55.4475 81.4753 54.0557 80.6338 52.6471 79.8167C50.7556 78.7179 48.865 77.6171 46.9754 76.514C46.4416 76.2032 45.9073 75.8942 45.3727 75.5868C45.1764 75.4738 45.0424 75.359 45.1955 75.0996C45.9024 73.9008 46.5983 72.695 47.3017 71.4939C47.3264 71.4502 47.3897 71.4298 47.4352 71.3977C48.0906 71.7077 48.7252 72.0611 49.3348 72.4555C52.4214 74.2427 55.5032 76.0387 58.5801 77.8434C58.9356 78.0709 59.3485 78.1896 59.7691 78.1851C60.1896 78.1805 60.5999 78.053 60.9505 77.8177C63.873 76.0816 66.8105 74.3705 69.7416 72.6507C69.8867 72.5657 70.0353 72.4881 70.1826 72.4077C70.459 72.0503 70.8281 71.7777 71.2487 71.6204C73.8967 70.0841 76.5249 68.5176 79.1723 66.9855C79.3933 66.8578 79.5925 66.6609 79.8803 66.6941L82.4742 65.173C82.6325 64.8373 82.9704 64.7289 83.2536 64.5634C84.5586 63.8005 85.8515 63.0167 87.1679 62.2783C87.5489 62.0753 87.8639 61.7653 88.0751 61.3855C88.2864 61.0057 88.3849 60.5722 88.3589 60.1372C88.3721 58.8002 88.3588 57.4627 88.3652 56.1252C88.3194 55.8797 88.3676 55.6257 88.5 55.4148Z" fill="#96BEDC"/>
<path d="M88.5017 55.4142C88.5086 57.074 88.5449 58.7361 88.508 60.3936C88.5182 60.7819 88.422 61.1655 88.23 61.5019C88.0381 61.8383 87.7581 62.1143 87.4207 62.2993C85.7698 63.2457 84.1487 64.2458 82.4828 65.1666C81.8203 63.9428 81.0552 62.7772 80.3311 61.5883C76.5703 55.417 72.8053 49.2491 69.0361 43.0848C68.8104 42.7153 68.6036 42.3319 68.3515 41.9828C68.2695 41.8826 68.2246 41.7565 68.2246 41.6264C68.2246 41.4962 68.2695 41.3702 68.3515 41.27C69.2512 39.7466 70.1361 38.2145 71.0266 36.6847L73.4984 32.4396C73.5422 32.3387 73.6193 32.2563 73.7165 32.2065C74.1465 32.8773 74.5799 33.5539 75.0128 34.2311C77.6131 38.33 80.2129 42.429 82.8121 46.5279C84.5747 49.309 86.3371 52.0902 88.0993 54.8717C88.196 55.0781 88.3329 55.2626 88.5017 55.4142Z" fill="#28A0F0"/>
<path d="M79.8892 66.6877C78.8157 67.401 77.6771 68.0077 76.5707 68.6692C74.5647 69.8633 72.5459 71.0353 70.5329 72.216C70.4178 72.2819 70.3026 72.3436 70.1915 72.4072C70.166 72.2186 70.086 72.042 69.9613 71.8995C68.1688 69.0474 66.3761 66.1958 64.5832 63.3448C63.1099 61.0036 61.6323 58.6646 60.1507 56.3281C60.0503 56.2069 59.9922 56.0557 59.9851 55.8977C59.978 55.7397 60.0225 55.5838 60.1116 55.4539C62.0922 52.0768 64.0645 48.6947 66.0286 45.3076C66.0752 45.2295 66.1126 45.1386 66.2283 45.1135C66.3895 45.1502 66.4286 45.3134 66.5051 45.4352C70.0741 51.1267 73.6431 56.8186 77.212 62.5108C77.9713 63.7225 78.7271 64.937 79.4909 66.1463C79.5882 66.351 79.7229 66.5351 79.8881 66.6888L79.8892 66.6877Z" fill="#28A0F0"/>
<g opacity="0.3">
<path d="M101.482 100.06V97.1115C101.482 96.9605 101.478 96.809 101.485 96.658C101.523 95.8724 101.729 95.6382 102.489 95.5991C102.991 95.5735 103.496 95.5991 104 95.6073C104.216 95.6036 104.428 95.6692 104.605 95.7948C104.783 95.9204 104.917 96.0995 104.987 96.3066C105.32 97.0864 105.659 97.8627 105.991 98.6418C106.444 99.6975 106.895 100.754 107.346 101.811C107.39 101.915 107.432 102.02 107.48 102.122C107.538 102.245 107.61 102.352 107.768 102.343C107.926 102.334 107.988 102.227 108.041 102.098C108.098 101.959 108.163 101.823 108.222 101.684C108.934 100.022 109.645 98.3594 110.356 96.6965C110.423 96.5409 110.495 96.387 110.564 96.2303C110.633 96.053 110.751 95.8999 110.904 95.7897C111.058 95.6794 111.24 95.6168 111.428 95.6096C112.023 95.5547 112.621 95.5584 113.216 95.6207C113.713 95.6854 113.888 95.8783 113.955 96.3871C113.983 96.6119 113.996 96.8383 113.994 97.0648C113.996 99.143 113.996 101.222 113.994 103.301C113.994 103.395 113.99 103.489 113.994 103.584C114 103.841 113.89 103.967 113.625 103.96C113.271 103.95 112.916 103.956 112.562 103.956C112.52 103.963 112.477 103.959 112.437 103.945C112.396 103.932 112.36 103.909 112.33 103.879C112.3 103.848 112.278 103.811 112.265 103.77C112.252 103.73 112.248 103.686 112.255 103.644C112.255 103.512 112.255 103.379 112.255 103.247C112.255 101.433 112.255 99.6192 112.25 97.8055C112.25 97.6569 112.349 97.4291 112.118 97.3778C111.896 97.3288 111.868 97.5585 111.802 97.7047C111.063 99.3544 110.326 101.006 109.59 102.658C109.52 102.814 109.447 102.967 109.373 103.118C109.245 103.38 109.047 103.6 108.801 103.753C108.555 103.905 108.271 103.984 107.982 103.979C107.52 104.058 107.045 103.961 106.649 103.708C106.252 103.454 105.962 103.061 105.835 102.604C105.197 101.035 104.467 99.5038 103.776 97.9565C103.738 97.8703 103.702 97.7817 103.661 97.6989C103.591 97.5538 103.562 97.323 103.34 97.383C103.118 97.4431 103.215 97.668 103.214 97.8196C103.208 99.6145 103.21 101.41 103.21 103.205C103.21 103.356 103.21 103.507 103.207 103.658C103.207 103.871 103.092 103.962 102.89 103.961C102.609 103.961 102.33 103.961 102.049 103.961C101.486 103.957 101.482 103.956 101.48 103.402C101.477 102.476 101.48 101.551 101.48 100.625L101.482 100.06Z" fill="white"/>
<path d="M85.4099 98.6273C85.4099 97.8149 85.4099 97.0025 85.4099 96.1895C85.4099 95.6236 85.4444 95.5945 86.0224 95.5875C86.2837 95.5846 86.5451 95.577 86.8064 95.5875C87.1668 95.6061 87.2134 95.6603 87.2335 96.0298C87.2404 96.1615 87.2335 96.2944 87.2335 96.4267C87.2335 97.844 87.2197 99.2614 87.2382 100.678C87.2543 101.927 87.5904 102.246 88.8223 102.252C89.9051 102.255 90.9873 102.252 92.0701 102.252C92.2193 102.255 92.3685 102.25 92.5173 102.236C92.6588 102.241 92.7997 102.215 92.931 102.162C93.0623 102.108 93.1812 102.028 93.2802 101.925C93.3793 101.823 93.4564 101.701 93.5066 101.567C93.5568 101.433 93.579 101.29 93.5718 101.147C93.5972 100.846 93.5954 100.543 93.5966 100.24C93.5966 98.9169 93.5966 97.5952 93.5966 96.2722C93.5966 95.5985 93.6088 95.5892 94.2943 95.5869C94.4808 95.5869 94.6679 95.5869 94.8544 95.5869C95.3926 95.5968 95.43 95.6288 95.43 96.1662C95.4335 97.6022 95.4301 99.0381 95.4335 100.475C95.4339 100.89 95.4088 101.305 95.3586 101.718C95.3385 102.253 95.1286 102.764 94.7675 103.156C94.4064 103.548 93.9181 103.795 93.3917 103.853C93.1183 103.914 92.8397 103.947 92.5598 103.952H88.3043C87.9868 103.947 87.6707 103.908 87.3613 103.836C86.8759 103.763 86.4285 103.528 86.0905 103.168C85.7526 102.808 85.5435 102.343 85.4968 101.849C85.4293 101.439 85.3971 101.023 85.4006 100.608C85.4168 99.9496 85.4099 99.2888 85.4099 98.6273Z" fill="white"/>
<path d="M59.7487 95.5869C61.1878 95.5869 62.6234 95.5869 64.0602 95.5869C64.6439 95.5869 64.6571 95.6073 64.6611 96.1901C64.6611 96.4168 64.6669 96.6435 64.6611 96.8702C64.649 97.2694 64.6035 97.3248 64.2006 97.3283C63.2491 97.3382 62.2964 97.3318 61.3449 97.3318C61.2142 97.3318 61.0836 97.3365 60.9529 97.3318C60.7589 97.3248 60.6875 97.4262 60.6927 97.6098C60.6961 97.7421 60.6927 97.8743 60.6927 98.0066V103.223C60.6927 103.355 60.6927 103.487 60.6899 103.619C60.6853 103.846 60.5845 103.969 60.3444 103.963C59.9708 103.956 59.5961 103.955 59.2236 103.963C58.9548 103.968 58.8576 103.828 58.8633 103.577C58.8668 103.445 58.8633 103.313 58.8633 103.181V97.7963C58.8633 97.3405 58.8576 97.3359 58.4063 97.3347C57.4358 97.3318 56.4646 97.3347 55.4947 97.3347C54.919 97.3347 54.9128 97.3213 54.9082 96.7199C54.9082 96.5501 54.9082 96.3801 54.9082 96.2099C54.9128 95.5951 54.9133 95.5904 55.5471 95.5893C56.9489 95.5842 58.3495 95.5834 59.7487 95.5869Z" fill="white"/>
<path d="M49.2131 99.8086C49.2131 101.014 49.2131 102.222 49.2131 103.428C49.2131 103.953 49.2015 103.956 48.676 103.963C48.3778 103.966 48.0802 103.957 47.782 103.963C47.5299 103.97 47.3946 103.871 47.405 103.602C47.4107 103.47 47.405 103.338 47.405 103.206V96.3643C47.405 96.2326 47.4107 96.1003 47.405 95.9686C47.3952 95.7408 47.4914 95.6009 47.721 95.5956C48.1119 95.5869 48.5034 95.5851 48.8937 95.5956C49.208 95.6038 49.2171 95.8323 49.2165 96.0764C49.2102 97.3201 49.2131 98.5644 49.2131 99.8086Z" fill="white"/>
<path d="M40.6942 99.6606C40.976 99.433 41.1914 99.1321 41.3172 98.7902C41.4431 98.4482 41.4746 98.078 41.4086 97.7193C41.4 97.5683 41.4046 97.4168 41.3937 97.2665C41.4011 96.854 41.2485 96.4551 40.9687 96.1553C40.6889 95.8554 40.3041 95.6786 39.897 95.6626C39.5457 95.615 39.1917 95.5903 38.8372 95.5886C36.8403 95.5816 34.8446 95.5851 32.8471 95.5886C32.698 95.5886 32.5485 95.5886 32.4 95.5985C32.3481 95.5967 32.2964 95.6063 32.2486 95.6266C32.2008 95.647 32.1578 95.6776 32.1228 95.7164C32.0878 95.7552 32.0616 95.8012 32.0459 95.8513C32.0303 95.9014 32.0256 95.9544 32.0322 96.0065C32.0322 96.1201 32.0322 96.2332 32.0322 96.3468V103.545C32.0322 103.816 32.1473 103.975 32.4351 103.966C32.5283 103.963 32.6215 103.966 32.7153 103.966H39.2604C39.4657 103.969 39.6712 103.961 39.8758 103.942C40.2634 103.932 40.6344 103.78 40.9201 103.514C41.2058 103.249 41.387 102.888 41.43 102.498C41.4743 102.142 41.4908 101.783 41.4794 101.425C41.5245 101.086 41.4749 100.741 41.3361 100.429C41.1973 100.117 40.9749 99.8509 40.6942 99.6606ZM33.8494 97.5975C33.8431 97.3644 33.9138 97.2589 34.1642 97.2601C35.7461 97.2682 37.3303 97.2542 38.9104 97.2699C39.4815 97.2758 39.6713 97.5223 39.6759 98.1441C39.6811 98.798 39.493 99.0422 38.8926 99.0608C38.1114 99.0847 37.328 99.0667 36.5475 99.0667C35.7657 99.0667 34.9833 99.0574 34.2022 99.0719C33.9408 99.0766 33.8321 99.0043 33.8471 98.7222C33.866 98.3458 33.8592 97.9681 33.85 97.5916L33.8494 97.5975ZM39.6103 101.944C39.5772 102.022 39.5254 102.091 39.4596 102.144C39.3938 102.197 39.316 102.233 39.2332 102.248C39.014 102.289 38.792 102.313 38.5691 102.319C37.1733 102.325 35.7777 102.325 34.3824 102.319C33.8568 102.319 33.8557 102.313 33.8517 101.795C33.8517 101.456 33.8666 101.116 33.8465 100.778C33.8304 100.493 33.915 100.38 34.2167 100.388C34.9788 100.407 35.742 100.394 36.5047 100.394C37.2484 100.394 37.9934 100.379 38.7371 100.398C38.9194 100.387 39.1012 100.427 39.2619 100.515C39.4226 100.603 39.5558 100.734 39.6466 100.895C39.7373 101.055 39.7819 101.238 39.7753 101.423C39.7687 101.608 39.7111 101.787 39.6092 101.94L39.6103 101.944Z" fill="white"/>
<path d="M25.9418 103.266C25.4019 102.57 24.8482 101.886 24.2841 101.176C24.4274 101.12 24.5263 101.076 24.6294 101.044C24.9735 100.946 25.2812 100.747 25.5129 100.472C25.7446 100.197 25.8897 99.8574 25.9297 99.498C26.0536 98.7897 26.055 98.065 25.9338 97.3562C25.8916 96.9183 25.6983 96.5094 25.388 96.2013C25.0777 95.8932 24.6701 95.7056 24.2368 95.6714C23.8859 95.621 23.532 95.5945 23.1776 95.5922C21.2936 95.5846 19.4096 95.5887 17.525 95.5887C17.4507 95.5887 17.3752 95.5858 17.3015 95.5887C16.8577 95.6126 16.7789 95.6901 16.7577 96.1202C16.7536 96.1953 16.7577 96.2711 16.7577 96.3469V103.6C16.7577 103.861 16.8872 103.971 17.1416 103.966C17.4588 103.959 17.7747 103.969 18.093 103.966C18.5478 103.958 18.5738 103.938 18.5801 103.491C18.5888 102.908 18.5911 102.32 18.5801 101.735C18.5744 101.46 18.6376 101.327 18.9496 101.334C19.9938 101.353 21.0386 101.349 22.0834 101.334C22.184 101.329 22.2842 101.352 22.3732 101.399C22.4622 101.447 22.5367 101.519 22.5888 101.606C22.9169 102.064 23.2536 102.517 23.6019 102.96C23.8563 103.284 24.0245 103.724 24.3848 103.904C24.7801 104.016 25.1953 104.034 25.5988 103.958C25.8215 103.955 26.1341 104.103 26.2527 103.829C26.3505 103.597 26.0748 103.436 25.9418 103.266ZM24.1775 98.7987C24.1418 99.572 23.8684 99.8476 23.1068 99.8622C22.416 99.8739 21.7253 99.8622 21.0346 99.8622C20.3438 99.8622 19.653 99.8488 18.9622 99.8686C18.6681 99.8768 18.5697 99.7795 18.5777 99.4846C18.5938 98.8622 18.5898 98.2386 18.5777 97.6156C18.5731 97.3533 18.66 97.2478 18.9329 97.2502C20.3501 97.2607 21.7673 97.2467 23.1839 97.2595C23.3103 97.2398 23.4394 97.2493 23.5617 97.2872C23.684 97.3251 23.7962 97.3905 23.89 97.4785C23.9838 97.5664 24.0568 97.6747 24.1035 97.7952C24.1502 97.9158 24.1694 98.0454 24.1597 98.1745C24.178 98.381 24.1822 98.5886 24.1723 98.7957L24.1775 98.7987Z" fill="white"/>
<path d="M79.6764 103.472C79.1877 102.852 78.6921 102.238 78.2046 101.618C78.0633 101.491 77.9575 101.329 77.8982 101.147C77.9707 101.123 78.0399 101.096 78.1107 101.076C78.487 100.986 78.8252 100.777 79.0766 100.48C79.3279 100.183 79.4793 99.8119 79.5089 99.4216C79.6249 98.6931 79.6119 97.9495 79.4704 97.2257C79.408 96.8198 79.2133 96.4467 78.9174 96.1658C78.6215 95.8848 78.2412 95.712 77.8372 95.6749C77.5056 95.6222 77.1707 95.5941 76.835 95.591C74.8952 95.5832 72.9553 95.5832 71.0155 95.591C70.3794 95.591 70.3506 95.6242 70.35 96.2629C70.35 98.6236 70.35 100.984 70.35 103.345C70.35 103.439 70.3535 103.534 70.35 103.629C70.342 103.867 70.4542 103.971 70.6879 103.967C71.0235 103.962 71.3596 103.973 71.6952 103.967C72.1154 103.958 72.1459 103.931 72.1522 103.519C72.1615 102.952 72.1557 102.386 72.1522 101.82C72.1522 101.32 72.1333 101.342 72.5944 101.343C73.5827 101.343 74.5716 101.357 75.5594 101.335C75.6871 101.327 75.8148 101.354 75.9283 101.414C76.0418 101.473 76.1369 101.564 76.2031 101.675C76.6854 102.346 77.1959 102.998 77.6818 103.667C77.7458 103.769 77.8366 103.853 77.9442 103.907C78.0517 103.961 78.1718 103.984 78.2914 103.974C78.6823 103.956 79.0749 103.974 79.4663 103.967C79.5901 103.967 79.7449 104.016 79.8203 103.871C79.9118 103.693 79.765 103.584 79.6764 103.472ZM77.7342 99.0463C77.7245 99.2571 77.6366 99.4564 77.4883 99.6046C77.3399 99.7528 77.1419 99.839 76.9336 99.8459C76.7858 99.8621 76.637 99.8677 76.4885 99.8628C75.1864 99.8628 73.8846 99.8628 72.5828 99.8628C72.1626 99.8628 72.1592 99.8564 72.1563 99.4309C72.1521 98.866 72.1521 98.3011 72.1563 97.7362C72.1592 97.2612 72.1632 97.2589 72.6623 97.2566C73.3317 97.2566 74.0012 97.2566 74.6701 97.2566C75.339 97.2566 76.009 97.2496 76.6779 97.2566C77.4337 97.2665 77.7267 97.5573 77.7515 98.312C77.7663 98.5561 77.7603 98.8009 77.7336 99.044L77.7342 99.0463Z" fill="white"/>
<path d="M11.0582 103.63C10.988 103.496 10.9166 103.364 10.8446 103.232L7.7937 97.6325C7.56863 97.2199 7.33848 96.8101 7.11801 96.3946C6.99064 96.1524 6.80153 95.9491 6.57048 95.8056C6.33943 95.6622 6.07471 95.5838 5.80372 95.5787C5.3802 95.5045 4.94449 95.5792 4.56869 95.7904C4.19288 96.0016 3.89968 96.3365 3.73784 96.7396C2.60499 98.9484 1.39783 101.118 0.22008 103.304C0.166546 103.403 0.105036 103.499 0.0607119 103.602C-0.0584447 103.877 -0.024553 103.948 0.261538 103.956C0.708807 103.968 1.15667 103.951 1.60394 103.964C1.70605 103.97 1.80738 103.942 1.8926 103.885C1.97782 103.828 2.04234 103.744 2.07656 103.646C2.24349 103.309 2.44721 102.99 2.59458 102.646C2.64068 102.514 2.73035 102.403 2.84824 102.332C2.96613 102.26 3.10497 102.232 3.24104 102.252C4.60242 102.271 5.96322 102.259 7.3246 102.261C7.637 102.212 7.95593 102.226 8.26281 102.303C8.55351 102.44 8.62494 102.852 8.79418 103.142C9.35715 104.108 9.02794 103.94 10.0393 103.958C10.3893 103.958 10.6316 103.958 10.8734 103.958C11.1152 103.958 11.163 103.828 11.0582 103.63ZM7.48916 100.858H3.67333C3.59562 100.722 3.68889 100.631 3.7384 100.537C4.23728 99.5879 4.73747 98.6401 5.23904 97.6936C5.28879 97.5927 5.34752 97.4965 5.41457 97.4063C5.43018 97.3825 5.4513 97.3629 5.47599 97.349C5.50067 97.3351 5.5283 97.3275 5.55651 97.3267C5.58472 97.3259 5.61262 97.332 5.63802 97.3444C5.66343 97.3569 5.68549 97.3753 5.70239 97.3982C5.73765 97.4417 5.76663 97.4902 5.78826 97.5421C6.35545 98.6032 6.92164 99.6646 7.48691 100.726C7.50131 100.754 7.48691 100.796 7.48691 100.858H7.48916Z" fill="white"/>
</g>
</g>
<defs>
<clipPath id="clip0_982_1898">
<rect width="114" height="104" fill="white"/>
</clipPath>
</defs>
</svg>
