<svg width="170" height="42" viewBox="0 0 170 42" fill="none" xmlns="http://www.w3.org/2000/svg">
<path fill-rule="evenodd" clip-rule="evenodd" d="M35.1204 6.65328L35.3337 7.98661C35.4937 9.21328 35.5737 10.44 35.5471 11.6933C35.5471 14.44 35.2271 17.16 34.5871 19.8266C33.7337 23.4266 32.2404 26.8666 30.1871 29.96C27.8137 33.48 24.3737 36.92 19.3871 39.7467L18.7737 40.0933L18.1604 39.7467C13.1737 36.9733 9.73372 33.5067 7.36039 29.96C5.28039 26.8666 3.81372 23.4533 2.96039 19.8266C2.32039 17.16 2.00039 14.44 2.00039 11.6933C2.00039 10.4666 2.05372 9.21328 2.21372 7.98661L2.40039 6.65328C2.42706 6.54661 2.42706 6.43995 2.40039 6.33328C2.37372 6.22661 2.34706 6.11994 2.26706 6.03994C2.21372 5.95994 2.13372 5.87995 2.05372 5.82661C1.97372 5.77328 1.86706 5.74661 1.78706 5.71994C1.68039 5.69328 1.57372 5.69328 1.46706 5.71994C1.36039 5.74661 1.25372 5.79994 1.17372 5.85328C1.09372 5.90661 1.01372 5.98661 0.96039 6.06661C0.907057 6.17328 0.88039 6.27994 0.853723 6.38661L0.640391 7.71995C0.480391 9.02662 0.400391 10.36 0.400391 11.6933C0.400391 14.5733 0.747058 17.4266 1.41372 20.2266C1.86706 22.12 2.48039 23.9866 3.25372 25.7733C4.02706 27.56 4.96039 29.2666 6.05372 30.8933C8.56039 34.6267 12.1871 38.28 17.4137 41.16L18.4004 41.72C18.5337 41.7733 18.6671 41.8 18.8004 41.8C18.9337 41.8 19.0671 41.7733 19.2004 41.72L20.1871 41.16C25.3871 38.2533 29.0404 34.6 31.5471 30.8933C33.7337 27.64 35.3071 24.0133 36.1871 20.2266C36.8537 17.4266 37.1737 14.5733 37.1737 11.6933C37.1737 10.36 37.0937 9.02662 36.9337 7.69328L36.7204 6.35995C36.6937 6.25328 36.6671 6.14661 36.6137 6.03994C36.5604 5.95994 36.4804 5.87995 36.4004 5.82661C36.3204 5.77328 36.2137 5.71995 36.1071 5.69328C36.0004 5.66661 35.8937 5.66661 35.7871 5.69328C35.6804 5.71995 35.5737 5.74661 35.4671 5.79994C35.3871 5.85328 35.3071 5.93328 35.2537 6.01328C35.2004 6.09328 35.1471 6.19994 35.1204 6.30661V6.65328Z" fill="white"/>
<path fill-rule="evenodd" clip-rule="evenodd" d="M6.87954 5.74668L18.8262 1.98666L31.0128 5.82668C31.1195 5.85335 31.2261 5.85334 31.3328 5.85334C31.4395 5.85334 31.5461 5.82668 31.6528 5.77334C31.7595 5.72001 31.8395 5.66668 31.9195 5.56001C31.9995 5.48001 32.0528 5.37334 32.0528 5.26668C32.0795 5.16001 32.0795 5.05334 32.0795 4.94668C32.0795 4.84001 32.0528 4.73334 31.9995 4.62668C31.9461 4.52001 31.8928 4.44001 31.8128 4.36001C31.7328 4.28001 31.6261 4.22667 31.5195 4.22667L19.0662 0.27999C18.9062 0.226657 18.7462 0.226657 18.5862 0.27999L6.42621 4.12C6.31954 4.14667 6.23954 4.2 6.13288 4.25334C6.05288 4.33334 5.97288 4.41334 5.94621 4.52001C5.89288 4.62667 5.86621 4.73334 5.86621 4.84001C5.86621 4.94667 5.86621 5.05334 5.89288 5.16001C5.91954 5.26668 5.97288 5.37334 6.02621 5.45334C6.07954 5.53334 6.18621 5.61334 6.29288 5.66668C6.37288 5.72001 6.47954 5.74668 6.61288 5.74668C6.66621 5.77335 6.77288 5.77335 6.87954 5.74668Z" fill="white"/>
<path fill-rule="evenodd" clip-rule="evenodd" d="M0.986851 6.89335L18.0802 41.3466C18.1335 41.48 18.2402 41.5866 18.3468 41.6666C18.6135 41.8266 18.9335 41.8266 19.2002 41.6666C19.3335 41.5866 19.4402 41.48 19.5202 41.3466L29.9468 21.2133L29.9735 21.1867L36.6402 6.86668C36.6935 6.76001 36.7202 6.65335 36.7202 6.54668C36.7202 6.44001 36.7202 6.33335 36.6668 6.22668C36.6402 6.12002 36.5868 6.01335 36.5068 5.93335C36.4535 5.85335 36.3468 5.77335 36.2668 5.72001C36.1868 5.66668 36.0802 5.64001 35.9468 5.64001C35.8402 5.64001 35.7335 5.64001 35.6268 5.66668C35.5202 5.69335 35.4135 5.74668 35.3335 5.82668C35.2535 5.90668 35.1735 5.98668 35.1468 6.09335L28.4802 20.4133L18.7735 39.16L2.40018 6.09335C2.34685 6.01335 2.26685 5.90668 2.21352 5.82668C2.13352 5.74668 2.02685 5.69335 1.92018 5.66668C1.81352 5.61335 1.70685 5.61335 1.60018 5.64001C1.49352 5.64001 1.38685 5.66668 1.28019 5.72001C1.20019 5.77335 1.09352 5.85335 1.04019 5.93335C0.986853 6.01335 0.933519 6.12002 0.906853 6.22668C0.880186 6.33335 0.85352 6.44001 0.880186 6.54668C0.906853 6.68001 0.933518 6.78668 0.986851 6.89335Z" fill="white"/>
<path fill-rule="evenodd" clip-rule="evenodd" d="M9.17356 22.2534H28.2136C28.3202 22.2534 28.4269 22.2267 28.5336 22.2C28.6402 22.1733 28.7202 22.0933 28.7736 22.0133C28.8536 21.9333 28.9069 21.8533 28.9336 21.7467C29.0136 21.5333 29.0136 21.32 28.9336 21.1067C28.9069 21 28.8269 20.92 28.7736 20.84C28.6936 20.76 28.6136 20.7067 28.5336 20.6534C28.4269 20.6267 28.3202 20.6 28.2136 20.6H9.17356C9.06689 20.6 8.96022 20.6267 8.85356 20.6534C8.74689 20.68 8.66689 20.76 8.61356 20.84C8.53356 20.92 8.48022 21 8.45355 21.1067C8.37355 21.32 8.37355 21.5333 8.45355 21.7467C8.48022 21.8533 8.53356 21.9333 8.61356 22.0133C8.69356 22.0933 8.77356 22.1467 8.85356 22.2C8.96022 22.2267 9.06689 22.2267 9.17356 22.2534ZM62.2403 15.08H49.8669C49.7603 15.08 49.6536 15.1067 49.5469 15.1333C49.4403 15.16 49.3603 15.24 49.3069 15.32C49.2269 15.4 49.1736 15.48 49.1469 15.5867C49.1203 15.6934 49.0936 15.8 49.0936 15.9067V26.1733C49.0936 26.28 49.1203 26.3867 49.1469 26.4934C49.1736 26.6 49.2269 26.68 49.3069 26.76C49.3869 26.84 49.4669 26.8933 49.5469 26.9467C49.6536 26.9733 49.7603 27 49.8669 27H62.2403V28.7333H49.8669C49.7069 28.7333 49.5469 28.7067 49.3869 28.68C49.2269 28.6533 49.0669 28.6 48.9069 28.5467C48.7469 28.4933 48.6136 28.4133 48.4803 28.3333C48.3469 28.2267 48.2403 28.12 48.1069 28.0133C47.8669 27.7733 47.7069 27.5067 47.5736 27.2133C47.5203 27.0533 47.4669 26.8933 47.4403 26.7333C47.4136 26.5733 47.3869 26.4134 47.3869 26.2534V15.9333C47.3869 15.7733 47.4136 15.6134 47.4403 15.4534C47.4669 15.2934 47.5203 15.1333 47.5736 14.9733C47.6269 14.8133 47.7069 14.6534 47.7869 14.52C47.8669 14.3867 47.9736 14.2533 48.1069 14.1467C48.2136 14.04 48.3469 13.9334 48.4803 13.8267C48.6136 13.7467 48.7469 13.6667 48.9069 13.6133C49.0669 13.56 49.2269 13.5067 49.3869 13.48C49.5469 13.4533 49.7069 13.4267 49.8669 13.4267H62.2403V15.08ZM85.467 13.3467V15.08H73.547V20.1733H83.1203V21.9333H73.547V27.0267H85.467V28.76H71.8936V13.3467H85.467V13.3467Z" fill="white"/>
<path d="M110.026 15.96V20.4667C110.026 20.6267 110 20.7867 109.973 20.9467C109.946 21.1067 109.893 21.2667 109.84 21.4267C109.786 21.5867 109.706 21.7467 109.626 21.88C109.52 22.0133 109.44 22.1467 109.306 22.2534C109.2 22.36 109.066 22.4667 108.933 22.5734C108.8 22.6534 108.666 22.7334 108.506 22.7867C108.346 22.84 108.186 22.8933 108.026 22.9467C107.866 22.9733 107.706 23 107.546 23H105.28L109.946 28.7334H107.706L103.066 23H97.6265C97.3598 23 97.0931 22.9734 96.8265 22.92V28.7334H95.1465V13.3734H107.573C107.733 13.3734 107.893 13.4 108.053 13.4267C108.213 13.4534 108.373 13.5067 108.533 13.56C108.693 13.6134 108.826 13.6934 108.96 13.8C109.226 13.9867 109.44 14.2267 109.626 14.4934C109.706 14.6267 109.786 14.7867 109.84 14.9467C109.893 15.1067 109.946 15.2667 109.973 15.4267C110 15.6134 110.026 15.8 110.026 15.96ZM97.5998 21.2934H107.546C107.653 21.2934 107.76 21.2667 107.866 21.24C107.973 21.2134 108.053 21.16 108.106 21.0534C108.186 20.9734 108.24 20.8934 108.266 20.7867C108.293 20.68 108.32 20.5734 108.32 20.4667V15.96C108.32 15.7467 108.24 15.5334 108.106 15.3734C107.973 15.2134 107.76 15.1067 107.546 15.1067H97.5998C97.4931 15.1067 97.3864 15.1334 97.2798 15.16C97.1731 15.1867 97.0931 15.2667 97.0398 15.3467C96.9598 15.4267 96.9065 15.5067 96.8798 15.6134C96.8531 15.72 96.8265 15.8267 96.8265 15.9334V20.44C96.8265 20.6534 96.9065 20.8667 97.0931 21.0267C97.1998 21.1867 97.4131 21.2934 97.5998 21.2934Z" fill="white"/>
<path fill-rule="evenodd" clip-rule="evenodd" d="M118.934 13.3467H133.814V15.08H127.227V28.7333H125.547V15.08H118.934V13.3467ZM142.88 28.76V13.3733H144.56V28.76H142.88ZM166.934 13.3467H169.094L162.88 21.0534L169.12 28.76H166.934L161.387 21.9333H156.587V28.76H154.907V13.3733H156.614V20.2H161.414L166.934 13.3467Z" fill="white"/>
</svg>
