<svg width="24" height="19" viewBox="0 0 24 19" fill="none" xmlns="http://www.w3.org/2000/svg">
<path d="M20.4067 1.52352C18.8855 0.811786 17.259 0.29453 15.5585 0C15.3497 0.377577 15.1057 0.885427 14.9375 1.28942C13.1298 1.01757 11.3387 1.01757 9.5643 1.28942C9.39611 0.885427 9.14658 0.377577 8.93587 0C7.23354 0.29453 5.60514 0.813687 4.08394 1.52729C1.01567 6.16384 0.183914 10.6852 0.599793 15.1424C2.63483 16.6621 4.60703 17.5853 6.54594 18.1894C7.02467 17.5306 7.45163 16.8302 7.81944 16.092C7.11892 15.8258 6.44798 15.4974 5.81401 15.116C5.9822 14.9914 6.14671 14.8611 6.30566 14.7271C10.1724 16.5357 14.3737 16.5357 18.1943 14.7271C18.3551 14.8611 18.5196 14.9914 18.6859 15.116C18.0501 15.4992 17.3773 15.8277 16.6768 16.0939C17.0446 16.8302 17.4697 17.5325 17.9503 18.1913C19.8911 17.5872 21.8651 16.664 23.9001 15.1424C24.3881 9.9754 23.0665 5.49553 20.4067 1.52352ZM8.34623 12.4013C7.18548 12.4013 6.23356 11.3177 6.23356 9.99805C6.23356 8.67844 7.16515 7.59294 8.34623 7.59294C9.52735 7.59294 10.4792 8.67654 10.4589 9.99805C10.4607 11.3177 9.52735 12.4013 8.34623 12.4013ZM16.1537 12.4013C14.9929 12.4013 14.041 11.3177 14.041 9.99805C14.041 8.67844 14.9726 7.59294 16.1537 7.59294C17.3348 7.59294 18.2867 8.67654 18.2664 9.99805C18.2664 11.3177 17.3348 12.4013 16.1537 12.4013Z" fill="white"/>
</svg>
