<svg width="171" height="122" viewBox="0 0 171 122" fill="none" xmlns="http://www.w3.org/2000/svg">
<circle cx="125.895" cy="41.9624" r="27.0376" fill="white"/>
<path d="M92.8061 62.3331C90.2938 59.9234 88.3583 56.8599 86.9996 53.1427C85.6665 49.4256 85 45.4392 85 41.1837C85 36.8256 85.7178 32.7111 87.1534 28.8401C88.6146 24.9691 90.7552 21.7775 93.5751 19.2652H98.1126V19.6882C95.1645 22.4056 92.9471 25.6613 91.4602 29.4554C89.9733 33.2495 89.2299 37.1589 89.2299 41.1837C89.2299 45.0547 89.922 48.7975 91.3064 52.4121C92.6907 56.0267 94.7031 59.1927 97.3436 61.9101V62.3331H92.8061Z" fill="url(#paint0_linear_991_46)"/>
<path d="M153.541 62.3331V61.9101C156.181 59.1927 158.193 56.0267 159.578 52.4121C160.962 48.7975 161.654 45.0547 161.654 41.1837C161.654 37.1589 160.911 33.2495 159.424 29.4554C157.937 25.6613 155.72 22.4056 152.771 19.6882V19.2652H157.309C160.129 21.7775 162.257 24.9691 163.692 28.8401C165.154 32.7111 165.884 36.8256 165.884 41.1837C165.884 45.4392 165.205 49.4256 163.846 53.1427C162.513 56.8599 160.59 59.9234 158.078 62.3331H153.541Z" fill="url(#paint1_linear_991_46)"/>
<g clip-path="url(#clip0_991_46)">
<path d="M125.893 25.7398L125.676 26.4792V47.9324L125.893 48.1496L135.852 42.2632L125.893 25.7398Z" fill="#343434"/>
<path d="M125.892 25.7398L115.934 42.2632L125.892 48.1496V37.7368V25.7398Z" fill="#8C8C8C"/>
<path d="M125.892 50.0354L125.77 50.185V57.827L125.892 58.1851L135.856 44.1521L125.892 50.0354Z" fill="#3C3C3B"/>
<path d="M125.892 58.1851V50.0354L115.934 44.1521L125.892 58.1851Z" fill="#8C8C8C"/>
<path d="M125.893 48.1505L135.851 42.2642L125.893 37.7377V48.1505Z" fill="#141414"/>
<path d="M115.934 42.2642L125.892 48.1505V37.7377L115.934 42.2642Z" fill="#393939"/>
</g>
<path d="M161.597 11.2861C162.828 10.2607 163.808 9.40829 164.539 8.72895C165.269 8.03678 165.878 7.31898 166.365 6.57555C166.852 5.83212 167.096 5.1015 167.096 4.3837C167.096 3.72999 166.942 3.21728 166.635 2.84556C166.327 2.47384 165.853 2.28798 165.212 2.28798C164.571 2.28798 164.077 2.50589 163.731 2.94169C163.385 3.36468 163.206 3.94789 163.193 4.69133H160.578C160.629 3.15319 161.084 1.98676 161.943 1.19206C162.815 0.397353 163.917 0 165.25 0C166.711 0 167.833 0.390944 168.615 1.17283C169.397 1.9419 169.788 2.96092 169.788 4.22989C169.788 5.22968 169.519 6.18461 168.98 7.09467C168.442 8.00474 167.827 8.79945 167.134 9.47879C166.442 10.1453 165.539 10.9528 164.423 11.9014H170.095V14.1317H160.597V12.1321L161.597 11.2861Z" fill="white"/>
<circle cx="28.5" cy="93.5" r="28.5" fill="white"/>
<g clip-path="url(#clip1_991_46)">
<path d="M28.4931 76.4L28.2637 77.1794V99.7929L28.4931 100.022L38.9899 93.8171L28.4931 76.4Z" fill="#343434"/>
<path d="M28.4931 76.4L17.9961 93.8171L28.4931 100.022V89.0458V76.4Z" fill="#8C8C8C"/>
<path d="M28.4946 102.01L28.3652 102.167V110.223L28.4946 110.6L38.9977 95.8082L28.4946 102.01Z" fill="#3C3C3B"/>
<path d="M28.4931 110.6V102.01L17.9961 95.8082L28.4931 110.6Z" fill="#8C8C8C"/>
<path d="M28.4941 100.023L38.9909 93.8182L28.4941 89.0469V100.023Z" fill="#141414"/>
<path d="M17.9961 93.8182L28.4931 100.023V89.0469L17.9961 93.8182Z" fill="#393939"/>
</g>
<path d="M66.727 73.9753C70.2219 73.9753 72.4029 72.5156 74.1635 70.1901C75.7139 68.112 76.7124 65.9596 77.2642 63.4609H73.8482C73.5328 65.5391 72.7708 67.1224 71.6409 68.4831C70.327 70.1159 68.7241 71.2044 67.0686 71.2044C64.9664 71.2044 63.4423 70.388 63.4423 68.7799C63.4423 64.9701 72.1664 64.2526 72.1664 59.082C72.1664 56.5339 70.2482 55 67.3051 55C64.4146 55 62.2599 56.806 62.2599 59.6758C62.2599 63.6589 67.3051 67.4935 71.6934 71.0065C73.5854 72.4909 74.873 73.2331 76.292 74L78 71.1549C77.1591 70.7344 75.635 69.8685 74.0847 68.7305C70.5898 66.1328 65.3343 62.3971 65.3343 59.5521C65.3343 58.1667 66.1489 57.4245 67.3839 57.4245C68.5401 57.4245 69.2234 58.1419 69.2234 59.2057C69.2234 62.9167 60 63.4609 60 68.8789C60 71.8971 62.3387 73.9753 66.727 73.9753Z" fill="white"/>
<defs>
<linearGradient id="paint0_linear_991_46" x1="85.4098" y1="-0.115365" x2="99.9909" y2="0.483798" gradientUnits="userSpaceOnUse">
<stop stop-color="#1D85FF"/>
<stop offset="1" stop-color="#8525FF"/>
</linearGradient>
<linearGradient id="paint1_linear_991_46" x1="153.181" y1="-0.115365" x2="167.762" y2="0.483798" gradientUnits="userSpaceOnUse">
<stop stop-color="#1D85FF"/>
<stop offset="1" stop-color="#8525FF"/>
</linearGradient>
<clipPath id="clip0_991_46">
<rect width="32.4451" height="32.4451" fill="white" transform="translate(109.674 25.7398)"/>
</clipPath>
<clipPath id="clip1_991_46">
<rect width="34.2" height="34.2" fill="white" transform="translate(11.3984 76.4)"/>
</clipPath>
</defs>
</svg>
