<svg width="88" height="65" viewBox="0 0 88 65" fill="none" xmlns="http://www.w3.org/2000/svg">
<path d="M54.147 35.217C54.4503 33.397 55.6203 31.2954 57.657 28.912C59.6937 26.5287 62.207 25.3154 65.197 25.272C66.7137 25.272 68.1003 25.662 69.357 26.442C70.6137 27.222 71.5453 28.197 72.152 29.367C73.972 26.637 76.1603 25.272 78.717 25.272C80.3203 25.272 81.707 25.7487 82.877 26.702C84.047 27.6554 84.6537 28.9337 84.697 30.537C84.697 31.7937 84.3937 32.812 83.787 33.592C83.1803 34.372 82.5953 34.8487 82.032 35.022C81.4687 35.1954 80.9703 35.282 80.537 35.282C79.7137 35.282 79.042 35.0437 78.522 34.567C78.002 34.0904 77.742 33.462 77.742 32.682C77.742 30.6887 78.8253 29.3237 80.992 28.587C80.5153 28.0237 79.6487 27.742 78.392 27.742C77.8287 27.742 77.417 27.7854 77.157 27.872C75.5103 28.5654 74.297 29.9954 73.517 32.162C70.917 41.7387 69.617 47.3287 69.617 48.932C69.617 50.1454 69.9637 51.012 70.657 51.532C71.3503 52.052 72.1087 52.312 72.932 52.312C74.5353 52.312 76.117 51.597 77.677 50.167C79.237 48.737 80.2987 46.982 80.862 44.902C80.992 44.4687 81.122 44.2304 81.252 44.187C81.382 44.1437 81.7287 44.1004 82.292 44.057H82.552C83.202 44.057 83.527 44.2304 83.527 44.577C83.527 44.6204 83.4837 44.8587 83.397 45.292C82.7037 47.762 81.3603 49.9504 79.367 51.857C77.3737 53.7637 75.0553 54.717 72.412 54.717C69.3787 54.717 67.082 53.352 65.522 50.622C63.7453 53.3087 61.7087 54.652 59.412 54.652H59.022C56.8987 54.652 55.382 54.0887 54.472 52.962C53.562 51.8354 53.0853 50.6437 53.042 49.387C53.042 48.0004 53.4537 46.8737 54.277 46.007C55.1003 45.1404 56.0753 44.707 57.202 44.707C59.0653 44.707 59.997 45.617 59.997 47.437C59.997 48.3037 59.737 49.062 59.217 49.712C58.697 50.362 58.1987 50.7954 57.722 51.012C57.2453 51.2287 56.9637 51.337 56.877 51.337L56.682 51.402C56.682 51.4454 56.812 51.532 57.072 51.662C57.332 51.792 57.6787 51.9437 58.112 52.117C58.5453 52.2904 58.957 52.3554 59.347 52.312C60.907 52.312 62.2503 51.337 63.377 49.387C63.767 48.6937 64.2653 47.2204 64.872 44.967C65.4787 42.7137 66.0853 40.3737 66.692 37.947C67.2987 35.5204 67.6453 34.0904 67.732 33.657C67.9487 32.487 68.057 31.642 68.057 31.122C68.057 29.9087 67.732 29.042 67.082 28.522C66.432 28.002 65.6953 27.742 64.872 27.742C63.1387 27.742 61.5137 28.4354 59.997 29.822C58.4803 31.2087 57.4187 32.9854 56.812 35.152C56.7253 35.542 56.617 35.7587 56.487 35.802C56.357 35.8454 56.0103 35.8887 55.447 35.932H54.537C54.277 35.672 54.147 35.4337 54.147 35.217Z" fill="white"/>
<path d="M1.49697 40.43C1.23697 40.43 0.933636 40.2567 0.58697 39.91C0.240303 39.5633 0.045303 39.26 0.0019697 39C-0.0413636 38.74 0.630303 38.09 2.01697 37.05C3.40364 36.01 4.83364 34.9267 6.30697 33.8C7.7803 32.6733 8.60364 32.045 8.77697 31.915C8.86364 31.8283 8.97197 31.785 9.10197 31.785H9.16697C9.42697 31.785 9.7303 32.1533 10.077 32.89C10.4236 33.6267 11.5936 36.1617 13.587 40.495C14.4103 42.3583 15.082 43.8533 15.602 44.98L21.127 57.005C21.1703 57.005 23.4236 52.39 27.887 43.16C32.3503 33.93 36.8136 24.635 41.277 15.275C45.7403 5.915 48.0586 1.12667 48.232 0.910004C48.492 0.303337 48.9253 0 49.532 0C49.8353 0 50.0953 0.130005 50.312 0.389999C50.5286 0.650002 50.6803 0.910004 50.767 1.17V1.56L35.622 32.955L20.347 64.545C20.1736 64.8483 19.762 65 19.112 65C18.722 65 18.462 64.935 18.332 64.805C18.2453 64.7183 16.122 60.125 11.962 51.025L5.72197 37.375L4.68197 38.09C4.03197 38.61 3.3603 39.13 2.66697 39.65C1.97364 40.17 1.58364 40.43 1.49697 40.43Z" fill="white"/>
<path d="M87.9466 3.90002H50.7666V2.45571e-05H87.9466V3.90002Z" fill="white"/>
</svg>
