<svg width="23" height="19" viewBox="0 0 23 19" fill="none" xmlns="http://www.w3.org/2000/svg">
<path d="M7.05271 18.2255C15.5158 18.2255 20.1436 11.2143 20.1436 5.13463C20.1436 4.93549 20.1395 4.73724 20.1306 4.53989C21.029 3.89044 21.8099 3.07997 22.4257 2.15737C21.6013 2.52381 20.7141 2.77049 19.7834 2.88173C20.7334 2.31211 21.4627 1.41103 21.8067 0.336833C20.9178 0.863841 19.9333 1.24688 18.8851 1.45364C18.0454 0.5593 16.8501 0 15.5266 0C12.9857 0 10.9252 2.06049 10.9252 4.60045C10.9252 4.9615 10.9656 5.31269 11.0445 5.64953C7.22047 5.45711 3.82967 3.62627 1.56062 0.842316C1.16548 1.52227 0.937633 2.31211 0.937633 3.15487C0.937633 4.75115 1.7499 6.16039 2.98511 6.98476C2.23026 6.96144 1.52115 6.75423 0.901301 6.40932C0.900624 6.42862 0.900626 6.44744 0.900626 6.46807C0.900626 8.69631 2.48658 10.5568 4.59193 10.9784C4.2053 11.0838 3.7985 11.1403 3.37869 11.1403C3.08266 11.1403 2.79426 11.1111 2.51394 11.0573C3.0997 12.8855 4.79824 14.2158 6.81209 14.253C5.23734 15.4873 3.25355 16.2224 1.09752 16.2224C0.7266 16.2224 0.36016 16.2013 0 16.1587C2.03627 17.4639 4.45423 18.2255 7.05294 18.2255" fill="white"/>
</svg>
