<svg width="1440" height="1285" viewBox="0 0 1440 1285" fill="none" xmlns="http://www.w3.org/2000/svg">
<g opacity="0.2">
<path fill-rule="evenodd" clip-rule="evenodd" d="M535.062 461.977C534.97 437.862 498.19 410.743 482.48 396.762C451.415 369.109 419.106 343.573 387.096 317.629C355.087 291.685 322.991 265.811 292.468 237.328C272.649 218.839 249.362 198.015 235.921 171.613C207.288 115.351 297.566 123.706 320.951 122.475C380.442 119.332 448.678 120.766 504.441 91.4675C537.73 73.9769 551.004 44.6431 543.854 1.89061C541.55 -12.0133 534.728 -28.0129 540.507 -41.5581C546.677 -56.0246 560.873 -64.3725 572.655 -69.9706C615.628 -90.3657 665.036 -92.7288 710.504 -95.2887C759.532 -98.1019 809.022 -97.279 857.704 -97.497C878.347 -97.5884 899.905 -106.64 919.563 -113.996C945.333 -123.638 970.798 -134.468 996.355 -144.94C1052.58 -167.924 1110.51 -192.13 1170 -197.968C1207.25 -201.625 1247.97 -196.681 1276.9 -164.871C1291.43 -148.9 1299.04 -125.157 1307.44 -104.066C1317.61 -78.5858 1327.37 -52.8598 1338.2 -27.7808C1373.07 52.991 1422.86 131.92 1503.67 135.887C1515.9 136.485 1527.91 134.536 1540.07 134.171C1547.82 133.946 1554.72 136.231 1557.6 146.126C1564.84 170.945 1542.08 210.125 1532.74 229.817C1512.31 272.921 1489.26 314.091 1467.68 356.33C1453.39 384.264 1428.67 422.439 1428.41 456.379C1428.18 486.62 1461.14 508.478 1479.08 523.373C1495.89 537.319 1526.35 556.835 1528.19 585.206C1529.09 598.962 1521.65 610.362 1513.89 619.209C1500.29 634.682 1484.62 645.597 1472.38 663.249C1452.32 692.21 1435.55 732.058 1438.28 771.083C1440.17 798.124 1452.81 815.833 1468.89 832.761C1475.64 839.878 1481.13 844.913 1481.49 856.468C1482.06 874.817 1476.17 894.235 1471.32 911.247C1453.97 972.13 1429.32 1031 1401.91 1085.97C1388.21 1113.44 1373.41 1140.83 1355.24 1164.26C1343.34 1179.65 1327.3 1197.96 1309.15 1197.94C1288.14 1197.94 1265.91 1188.68 1245.48 1181.76C1207.34 1168.83 1169.65 1153.88 1132.12 1138.54C1045.32 1103.05 959.329 1064.69 874.158 1023.46C814.166 994.361 752.901 965.224 696.499 926.543C685.499 918.947 675.116 910.091 665.492 900.093C655.208 889.593 642.447 884.895 629.507 881.393C549.195 859.654 461.209 876.343 380.563 886.808C360.093 889.459 339.623 892.125 319.096 893.981C301.449 895.578 280.323 900.156 263.172 893.278C229.376 879.74 258.92 829.842 271.41 809.51C315.386 737.923 372.123 677.357 424.711 615.524C449.715 586.078 474.909 556.709 498.553 525.596C510.865 509.42 535.143 483.118 535.062 461.977Z" stroke="#4C525F" stroke-width="5"/>
<path fill-rule="evenodd" clip-rule="evenodd" d="M550.218 457.912C536.739 432.394 513.09 413.533 493.46 395.783C465.21 370.23 436.073 346.097 407.374 321.268C380.237 297.789 353.043 274.043 327.912 247.379C312.588 231.12 293.361 211.675 286.103 187.627C270.358 135.502 355.06 143.41 375.971 142.046C427.956 138.672 486.893 137.899 534.986 110.455C565.017 93.3164 577.355 64.8953 570.95 25.4376C568.736 11.7859 564.746 0.130685 569.797 -13.4507C575.637 -29.1691 589.07 -38.9685 601.384 -45.8857C639.959 -67.5583 685.556 -72.1627 727.371 -75.9939C770.57 -79.9516 815.579 -82.7425 857.388 -79.8462C874.107 -78.6934 893.351 -85.238 909.897 -90.2572C935.357 -97.9899 960.556 -106.911 985.889 -115.206C1037.37 -132.077 1090.19 -148.33 1143.75 -150.178C1182.42 -151.514 1222.73 -144.273 1254.9 -116.288C1287.51 -87.9093 1301.97 -43.9175 1320.05 -2.09777C1351.28 70.2027 1393.45 158.109 1465.69 173.385C1476.64 175.704 1487.17 174.446 1498.11 175.016C1503.74 175.304 1510.14 176.218 1513 182.987C1520.4 200.561 1500.1 232.694 1493.27 246.156C1474.4 283.357 1453.18 318.738 1433.4 355.222C1417.68 384.191 1397.77 416.38 1391.7 450.72C1384.32 492.392 1432.5 522.044 1449.45 551.386C1478.82 602.267 1423.17 631.257 1395.73 655.517C1364.22 683.368 1338.22 734.179 1366.46 777.271C1377.27 793.749 1390.56 803.569 1395.39 825.073C1402.93 858.703 1397.22 897.134 1391.1 930.378C1381.88 980.352 1367.28 1029.78 1347.44 1074.95C1333.22 1107.29 1309.63 1157.99 1275.09 1154.19C1251.84 1151.65 1228.21 1142.38 1205.57 1134.18C1171.67 1121.92 1138.19 1107.93 1104.9 1093.41C1028.04 1059.98 952.035 1023.11 877.52 982.566C826.677 954.89 684.853 841.79 674.181 837.755C642.363 825.734 606.187 827.85 573.383 829.713C529.746 832.187 486.328 838.598 442.945 844.538C422.294 847.35 401.539 850.788 380.779 852.173C366.003 853.157 346.597 854 333.654 843.519C308.391 823.07 336.537 776.28 348.177 756.484C383.834 695.797 428.941 643.243 471.235 589.508C491.99 563.125 513.061 536.785 531.902 508.287C539.501 496.779 558.549 473.672 550.218 457.912Z" stroke="url(#paint0_linear_982_1743)" stroke-width="5"/>
<path fill-rule="evenodd" clip-rule="evenodd" d="M568.865 444.825C532.054 393.761 481.247 355.783 437.398 313.135C415.39 291.724 393.243 269.729 374.261 244.225C364.387 230.963 352.057 214.193 350.154 195.707C345.07 146.253 421.413 152.94 444.263 151.063C488.441 147.42 538.349 144.657 578.428 119.42C602.915 103.993 614.975 78.6715 610.398 45.3906C608.369 30.6241 605.21 18.0797 610.398 3.58035C615.655 -11.1088 626.607 -21.4735 637.698 -29.2435C669.569 -51.5901 709.176 -58.7344 745.059 -64.0573C787.153 -70.2573 829.564 -72.678 871.949 -71.3C909.072 -70.1116 946.016 -83.4788 982.262 -92.2895C1030.28 -103.955 1079.17 -114.144 1128.3 -112.604C1167.11 -111.38 1206.22 -101.768 1239.39 -76.2221C1273.1 -50.205 1293.37 -11.2636 1311.64 30.7577C1339.27 94.2818 1373.69 179.407 1434.29 203.533C1443.1 207.049 1451.32 207.435 1460.41 208.047C1464.82 208.343 1470.53 208.434 1472.72 214.052C1477.98 227.581 1458.51 253.809 1453.07 262.95C1435.72 292.132 1416.91 319.998 1399.13 348.793C1382.53 375.675 1364.44 403.689 1354.13 435.191C1337.72 485.362 1390.19 514.698 1388.72 562.507C1387.8 592.187 1364.51 613.472 1346.06 628.197C1323.35 646.303 1290.65 658.208 1279.28 691.249C1270.81 715.86 1284.1 730.184 1294.33 748.86C1311.67 780.502 1312.85 823.396 1311.05 860.024C1308.62 909.52 1299.11 959.747 1282.93 1005.24C1275.6 1025.87 1266.62 1047.32 1253.39 1063.34C1241.01 1078.35 1229.28 1082.2 1212.73 1079.12C1162.05 1069.7 1110.88 1043.44 1062.28 1019.98C1001.22 990.503 940.995 957.961 882.573 921.347C842.736 896.377 801.999 869.959 767.032 835.462C757.919 826.468 748.587 816.694 741.923 804.832C736.885 795.916 734.746 788.554 726.255 783.463C701.088 768.38 666.081 772.325 639.116 773.893C595.998 776.389 553.088 783.034 510.236 789.018C485.23 792.534 438.124 803.594 418.156 777.064C400.921 754.155 421.719 715.094 432.343 694.913C459.216 643.877 493.785 599.085 525.858 552.965C540.557 531.827 555.832 510.529 567.972 487.029C571.073 481.038 576.042 473.099 576.895 465.821C577.852 457.482 573.385 451.118 568.865 444.825Z" stroke="#4C525F" stroke-width="5"/>
<path fill-rule="evenodd" clip-rule="evenodd" d="M572.03 456.712C538.015 411.562 497.036 374.47 460.519 332.219C444.146 313.275 427.612 293.402 415.136 270.293C408.425 257.865 401.299 242.222 403.15 226.775C408.46 182.442 471.248 186.446 496.615 183.849C534.308 180.035 577.611 176.193 610.94 152.288C632.773 136.63 640.959 113.506 636.883 83.6832C632.507 51.6926 642.291 28.4703 664.556 10.6243C692.471 -11.7326 727.708 -20.8456 760.12 -27.3197C799.171 -35.0825 838.715 -38.5236 878.273 -37.6009C916.744 -36.7002 954.016 -44.5676 992.234 -49.6836C1042.9 -56.4603 1095.2 -59.8029 1145.3 -45.9117C1188.92 -33.815 1228.32 -7.1585 1257.85 34.0647C1288.7 77.0895 1303.98 131.296 1329.03 178.895C1344.65 208.584 1366.44 247.858 1395.63 259.399C1405.37 263.248 1423.11 258.055 1415.34 276.992C1410.89 287.822 1402.57 297.322 1396 306.175C1385.38 320.481 1374.41 334.393 1363.61 348.503C1340.6 378.579 1315.95 409.296 1298.7 444.911C1276.97 489.751 1309.27 524.261 1305.34 569.728C1303.22 594.196 1289.28 613.723 1274.53 629.064C1264.99 639.001 1254.55 647.607 1243.89 655.636C1232.76 664.025 1219.59 670.414 1209.88 681.258C1196.04 696.691 1202.05 714.959 1204.64 734.909C1209.21 769.969 1210.21 805.584 1207.63 840.944C1204.47 884.285 1197.06 928.865 1181.45 968.252C1175.38 983.586 1167.69 999.841 1156.27 1010.12C1144.85 1020.4 1133.04 1019.7 1119.95 1016.6C1081.13 1007.46 1042.4 986.168 1005.57 965.993C959.487 940.737 914.305 912.511 871.159 880.401C841.375 858.234 811.494 834.287 786.577 804.231C779.33 795.484 772.435 786.118 766.86 775.661C763.032 768.49 760.979 759.236 755.433 753.846C738.08 737.02 703.241 742.045 682.89 743.023C642.274 744.972 602.298 754.24 561.734 756.492C539.595 757.723 504.923 760.82 488.665 737.815C473.376 716.19 487.224 682.131 496.362 661.294C514.32 620.324 538.448 583.823 560.073 545.738C568.963 530.067 578.706 513.67 584.466 495.775C589.585 479.829 580.747 468.288 572.03 456.712Z" stroke="url(#paint1_linear_982_1743)" stroke-width="5"/>
<path fill-rule="evenodd" clip-rule="evenodd" d="M580.396 457.45C553.321 417.72 520.682 382.451 493.411 342.074C477.449 318.428 449.959 278.677 462.304 245.341C475.847 208.709 523.055 207.711 550.343 204.76C582.821 201.246 620.962 196.447 648.757 173.574C657.547 166.343 665.036 156.772 668.21 144.166C671.609 130.674 667.893 118.869 667.409 105.363C666.395 77.0299 680.255 54.2835 698.597 38.6625C724.52 16.5766 756.934 6.13448 787.552 -1.14549C822.24 -9.35651 857.503 -13.4046 892.838 -13.2319C926.606 -13.0914 960.018 -14.0048 993.821 -15.0589C1038.03 -16.4643 1082.86 -14.1946 1125.74 0.133445C1167.98 14.2577 1206.39 40.7284 1236.55 79.665C1265.98 117.66 1285.84 164.101 1303.23 211.407C1313.1 238.257 1329.77 278.381 1353.31 291.944C1363.78 297.98 1374.05 297.565 1362.92 313.264C1348.9 333.03 1330.01 348.89 1313.78 365.797C1290.36 390.195 1266.36 415.071 1246.7 444.078C1234.15 462.601 1228.56 480.576 1229.42 504.559C1230.09 522.83 1233.12 540.91 1231.59 559.251C1228 602.298 1200.22 631.818 1175.65 659.308C1159.85 676.988 1145.42 690.473 1137.29 715.622C1127.67 745.347 1123.63 777.685 1117.2 808.547C1110.14 842.439 1101.98 877.693 1086.57 907.544C1072.84 934.12 1056.16 946.038 1031.18 938.877C992.219 927.718 953.819 900.229 919.233 874.798C884.03 848.925 849.432 819.833 820.26 784.269C804.511 765.064 793.762 742.515 779.775 721.883C762.182 695.982 722.382 705.792 698.73 707.984C659.465 711.624 535.918 738.861 547.319 650.644C552.077 613.822 570.816 579.84 584.52 547.347C590.2 533.862 598.421 517.679 599.705 502.227C601.105 485.397 588.536 469.41 580.396 457.45Z" stroke="#2E3239" stroke-width="5"/>
<path fill-rule="evenodd" clip-rule="evenodd" d="M594.69 460.824C574 424.82 549.239 390.806 531.486 351.919C519.969 326.735 508.66 293.087 523.516 266.44C540.285 236.37 577.259 229.361 604.428 225.529C632.419 221.585 665.835 218.266 688.713 195.466C695.992 188.203 701.992 178.41 703.109 166.682C704.186 155.433 701.146 144.184 702.153 132.731C704.411 107.013 717.188 85.8228 733.663 70.4538C782.396 24.9865 854.929 14.8764 913.728 13.6882C943.159 13.0976 973.448 16.1982 1003.07 18.4198C1041.51 21.3024 1080 27.4894 1116.66 42.4015C1194.6 74.0957 1246.84 144.388 1283.32 231.857C1294.81 259.389 1303.59 289.178 1321.59 311.303C1330.87 322.728 1328.84 330.933 1319.36 341.352C1304.53 357.635 1286.44 370.079 1269.98 383.67C1246.57 402.997 1222.67 422.613 1201.96 445.765C1187.7 461.724 1177.57 477.1 1174.49 501.033C1172.3 518.096 1172.81 535.483 1171.49 552.652C1168.98 585.267 1160.38 617.636 1145.16 644.69C1133.07 666.134 1118.68 685.623 1103.8 704.205C1084.45 728.397 1068.09 752.976 1053.4 781.689C1033.93 819.697 1006.56 889.807 960.694 871.253C910.1 850.78 862.68 798.76 830.22 748.357C819.319 731.434 810.371 710.68 795.67 698.2C773.661 679.548 751.33 680.202 725.152 680.279C685.961 680.385 600.679 690.769 599.758 619.112C599.395 590.723 609.46 563.88 614.28 536.573C619.716 505.989 608.821 485.361 594.69 460.824Z" stroke="#2E3239" stroke-width="5"/>
<path fill-rule="evenodd" clip-rule="evenodd" d="M610.102 464.034C589.637 417.109 543.746 340.002 578.65 287.822C597.087 260.246 629.698 249.883 657.053 243.707C679.068 238.712 705.618 236.836 722.251 215.66C734.478 200.091 729.05 177.433 733.734 157.944C739.548 133.782 752.892 114.012 769.289 99.1524C815.111 57.6232 878.822 44.8785 933.943 42.1665C991.19 39.3562 1054.27 52.5014 1108.14 77.787C1175.31 109.326 1225.63 169.044 1260.82 244.67C1267.31 258.63 1273.21 272.955 1279.45 287.084C1283.64 296.562 1289.85 305.73 1293.15 315.7C1298.65 332.323 1292.17 345.911 1281.79 356.744C1266.85 372.341 1248.51 383.442 1231.48 395.147C1208.2 411.166 1184.4 426.896 1162.74 445.69C1148.19 458.337 1132.95 471.959 1127.75 493.901C1124.19 508.866 1123.45 524.716 1123.58 540.215C1123.86 573.446 1122.43 600.32 1109.72 630.755C1088.8 680.722 1056.64 725.652 1022.67 763.036C996.001 792.376 953.809 837.952 914.959 818.336C880.101 800.771 859.711 758.729 836.746 724.739C825.58 708.214 813.037 693.123 798.299 681.369C779.717 666.551 762.225 660.334 740.21 657.91C703.158 653.828 647.288 652.767 635.834 598.528C631.605 578.512 634.019 557.779 631.8 537.503C628.902 510.692 620.427 487.704 610.102 464.034Z" stroke="#4C525F" stroke-width="5"/>
<path fill-rule="evenodd" clip-rule="evenodd" d="M631.381 465.772C616.808 414.427 597.664 349.718 632.861 304.085C649.91 281.978 673.891 269.62 697.101 260.385C713.724 253.766 740.118 251.818 750.309 231.47C757.794 216.496 758.831 195.838 765.602 179.795C774.907 157.737 789.002 139.57 805.538 125.348C848.618 88.288 904.728 73.9677 955.898 69.8671C1067.08 60.9697 1180.21 131.833 1239.71 248.421C1257.45 283.174 1280.35 320.163 1251.68 355.669C1220.38 394.402 1173.23 412.549 1135.87 440.071C1121.6 450.58 1103.41 463.212 1095.44 482.238C1090.65 493.674 1090.33 508.023 1090.11 520.613C1089.53 552.679 1087.35 581.516 1076.78 611.437C1060.47 657.676 1034.45 700.334 1004.96 735.277C979.246 765.746 942.574 801.554 905.229 779.588C876.596 762.708 858.435 726.879 836.187 700.468C811.428 671.053 780.808 651.233 747.183 641.548C714.472 632.151 678.596 625.814 661.357 585.891C655.443 572.197 649.265 554.465 647.048 539.308C643.47 514.317 638.23 489.723 631.381 465.772V465.772Z" stroke="#2E3239" stroke-width="5"/>
<path fill-rule="evenodd" clip-rule="evenodd" d="M655.109 466.134C648.367 414.286 647.618 360.224 678.942 319.36C693.561 300.296 712.04 286.753 730.728 274.482C744.477 265.452 758.675 257.837 768.943 243.034C778.457 229.329 785.689 213.415 794.874 199.351C806.99 180.713 821.487 164.579 837.809 151.568C878.721 119.016 928.49 103.792 976.104 98.511C999.153 95.9443 1024.16 94.6082 1047.05 101.605C1069.16 108.356 1091.02 119.031 1111.35 131.477C1154.57 157.911 1192.02 196.622 1219.18 245.566C1237.79 279.137 1247.86 311.78 1223.75 345.836C1196.57 384.224 1153.95 405.405 1118.82 430.319C1094.73 447.407 1067.73 464.158 1063.23 500.471C1059.65 529.366 1056.74 556.791 1047.46 584.104C1033.67 624.39 1013.38 660.884 987.802 691.42C964.412 719.239 934.823 742.846 901.367 727.987C874.86 716.194 854.295 689.775 831.136 670.887C805.326 649.79 776.97 638.159 747.11 628.807C720.275 620.368 695.007 607.401 677.663 579.871C674.113 574.245 670.385 568.12 667.648 561.826C664.156 553.796 664.427 545.835 663.741 536.834C661.954 513.08 658.157 489.6 655.109 466.134Z" stroke="#2E3239" stroke-width="5"/>
<path fill-rule="evenodd" clip-rule="evenodd" d="M681.271 461.896C681.847 412.649 691.552 366.106 718.132 327.726C729.496 311.308 743.066 297.785 755.57 282.74C765.638 270.611 775.153 259.342 786.729 249.347C814.191 225.682 836.51 195.057 865.694 173.983C904.652 145.81 949.277 130.237 993.557 124.01C1015.18 120.968 1037.51 119.904 1059.39 123.341C1078.18 126.292 1096.17 136.653 1112.86 147.253C1145.58 168.017 1177.34 197.529 1198.58 234.866C1245.41 317.182 1153.08 377.03 1105.69 412.078C1083.9 428.2 1050.6 446.872 1041.67 478.807C1035.29 501.621 1031.4 524.822 1023.18 546.931C1001.1 606.307 956.287 676.142 896.565 666.845C871.01 662.872 847.718 646.736 823.862 635.903C799.297 624.746 773.943 618.527 748.411 611.702C724.548 605.328 705.53 596.256 690.117 571.935C682.751 560.32 683.402 546.417 682.745 532.168C681.674 508.763 681.011 485.224 681.271 461.896Z" stroke="#4C525F" stroke-width="5"/>
<path fill-rule="evenodd" clip-rule="evenodd" d="M705.094 455.588C714.688 381.253 750.322 300.101 802.718 256.932C864.351 206.15 931.122 163.388 1004.76 151.095C1038.9 145.395 1076.3 142.59 1108.51 161.23C1133.03 175.407 1161.51 196.598 1175 226.399C1208.01 299.293 1134.59 357.321 1092.75 391.044C1070.23 409.199 1041.56 426.89 1024.59 453.402C1014.74 468.774 1009.71 489.107 1001.76 505.99C977.665 557.151 938.001 598.416 888.592 605.796C865.747 609.205 842.734 604.988 820.062 601.635C796.854 598.205 773.358 596.343 750.293 591.556C731.883 587.733 710.185 581.259 703.404 557.214C694.853 526.914 701.178 485.944 705.094 455.588Z" stroke="url(#paint2_linear_982_1743)" stroke-width="5"/>
<path fill-rule="evenodd" clip-rule="evenodd" d="M728.456 443.647C742.449 373.76 772.08 305.589 821.893 263.868C848.309 241.745 878.974 226.473 908.415 211.384C941.787 194.283 976.654 181.01 1012.27 174.425C1056.61 166.223 1128.42 158.83 1151.59 220.487C1174.58 281.686 1116.48 335.851 1082.12 366.718C1060.09 386.492 1036.51 404.641 1015.46 426.258C1004.05 437.977 995.26 451.518 985.602 465.264C958.909 503.348 920.855 533.497 882.068 549.592C844.476 565.195 797.971 572.102 758.289 566.946C741.168 564.73 728.929 557.253 723.751 535.995C716.576 506.443 722.672 472.516 728.456 443.647Z" stroke="#2E3239" stroke-width="5"/>
<path fill-rule="evenodd" clip-rule="evenodd" d="M751.668 424.824C765.569 363.291 795.553 307.089 839.288 270.158C888.312 228.758 951.44 205.753 1009.46 194.055C1040.3 187.841 1107.14 170.994 1122.86 219.21C1138.58 267.426 1093.13 314.942 1066.98 341.099C1035.23 372.797 1001.01 403.402 966.82 431.843C937.119 456.571 905.425 481.852 873.254 500.948C855.11 511.781 836.209 520.626 816.775 527.379C802.385 532.338 784.086 539.736 769 536.044C730.946 526.72 745.02 454.245 751.668 424.824Z" stroke="#2E3239" stroke-width="5"/>
<path fill-rule="evenodd" clip-rule="evenodd" d="M780.322 406.398C810.823 290.032 907.457 232.801 1000.5 212.853C1022.12 208.222 1082.73 191.527 1094.82 227.074C1106.53 261.539 1069.28 302.412 1051.84 321.778C997.813 381.784 931.058 426.276 867.801 470.353C848.056 484.111 812.445 513.966 787.953 500.195C761.36 485.214 774.003 430.527 780.322 406.398Z" stroke="url(#paint3_linear_982_1743)" stroke-width="5"/>
<path fill-rule="evenodd" clip-rule="evenodd" d="M811.563 384C838.087 298.305 915.237 249.156 986.168 232.954C1003.54 228.989 1047.66 216.645 1060.82 240.559C1073 262.681 1043.94 294.735 1033.07 307.472C1008.86 335.835 980.18 359.201 951.842 381.66C925.641 402.438 899.157 423.737 871.587 441.311C857.066 450.561 829.831 470.3 813.329 456.016C795.563 440.65 805.673 403.029 811.563 384Z" stroke="url(#paint4_linear_982_1743)" stroke-width="5"/>
<path fill-rule="evenodd" clip-rule="evenodd" d="M845.992 358.963C866.208 303.001 920.354 266.661 968.117 254.585C980.969 251.343 1008.75 242.932 1019.59 257.877C1029.57 271.641 1013.48 291.819 1006.34 301.137C974.702 342.443 928.366 379.338 885.911 401.999C875.236 407.696 856.048 418.878 845.068 407.379C833.804 395.571 841.348 371.813 845.992 358.963Z" stroke="#4C525F" stroke-width="5"/>
<path fill-rule="evenodd" clip-rule="evenodd" d="M882.514 335.456C893.906 307.667 923.68 286.702 948.343 280.028C965.701 275.335 986.565 279.389 971.438 303.578C956.41 327.582 928.527 349.506 904.894 359.226C886.863 366.638 872.731 359.325 882.514 335.456Z" stroke="#2E3239" stroke-width="5"/>
<path fill-rule="evenodd" clip-rule="evenodd" d="M-41.288 527.923C-42.0187 473.023 -65.9227 415.966 -54.1174 360.026C-44.4235 314.082 4.37981 310.247 33.6572 289.432C56.9226 272.895 70.1259 243.6 82.7078 215.493C94.0126 190.26 104.167 164.267 116.076 139.448C123.785 123.403 137.023 91.8955 153.741 91.3265C169.746 90.7785 184.422 115.331 193.719 129.845C205.841 148.763 216.588 168.932 228.358 188.152C248.195 220.572 271.995 244.57 299.248 267.282C330.26 293.124 361.785 318.084 393.822 342.161C417.41 359.942 441.159 377.588 463.831 397.125C478.053 409.383 509.442 432.383 509.586 454.983C509.655 465.766 501.284 477.709 495.64 486.328C486.09 500.919 475.205 514.26 464.286 527.312C443.949 551.626 422.749 574.836 401.779 598.328C374.561 628.816 348.563 658.806 324.636 693.418C299.898 729.246 276.264 766.254 252.147 802.756C235.814 827.484 219.499 855.253 195.94 870.427C166.432 889.395 142.212 869.395 112.371 869.163C86.7005 868.959 88.5932 796.349 85.3312 776.159C82.0578 755.723 74.8434 736.699 72.0474 716.215C68.561 690.644 68.515 664.482 67.6578 638.637C66.6165 607.025 66.2023 576.93 38.5243 564.875C22.7724 558.026 5.73181 556.585 -10.5724 552.483C-21.135 549.82 -41.0579 545.268 -41.288 527.923Z" stroke="#2E3239" stroke-width="5"/>
<path fill-rule="evenodd" clip-rule="evenodd" d="M-28.6661 518.157C-31.3568 472.137 -47.2536 413.235 -32.2211 365.73C-19.3781 325.135 20.7873 319.872 47.8332 298.547C70.1601 280.958 80.0992 252.175 91.2598 223.899C100.214 201.216 108.897 178.315 119.06 156.357C126.551 140.175 137.988 112.856 153.562 109.507C167.563 106.495 182.578 130.614 190.437 142.884C201.903 160.796 211.71 180.25 221.839 199.295C239.637 232.75 257.862 262.834 283.911 287.41C310.075 312.091 338.7 330.545 367.63 349.752C390.262 364.781 412.779 380.245 434.282 397.595C450.3 410.512 473.33 427.046 480.659 450.08C486.461 468.303 457.035 498.542 448.358 509.215C430.497 531.159 411.569 551.759 392.607 572.233C369.491 597.181 345.637 618.999 325.223 647.458C288.71 698.34 258.19 761.703 211.209 799.519C182.872 822.329 151.338 828.161 119.821 824.749C107.341 823.398 104.345 801.89 102.772 789.346C100.156 768.506 99.8275 747.308 97.8167 726.384C95.9326 706.797 91.7495 688.187 88.3789 668.98C84.9679 649.52 84.0114 629.581 81.4993 609.986C79.9436 597.822 78.4052 583.666 71.6005 573.887C64.5596 563.762 52.9439 559.52 42.7916 556.297C23.7258 550.303 -26.7647 550.634 -28.6661 518.157Z" stroke="#4C525F" stroke-width="5"/>
<path fill-rule="evenodd" clip-rule="evenodd" d="M-12.4232 498.892C-16.9485 456.649 -23.2838 404.035 -4.84845 365.116C10.2204 333.293 42.3584 326.428 65.3132 305.693C84.4058 288.45 91.6174 261.026 101.095 235.541C108.871 214.638 116.688 193.643 126.113 173.751C133.261 158.665 142.473 138.211 156.666 132.948C168.8 128.451 182.509 148.596 189.236 158.623C200.691 175.711 210.029 194.858 219.305 213.752C234.477 244.669 248.439 277.693 270.034 302.841C291.017 327.243 315.943 341.648 341.337 357.844C360.787 370.252 380.116 383.139 398.441 397.936C412.513 409.291 429.951 422.747 437.284 441.641C443.625 457.935 427.346 477.223 419.212 488.718C405.78 507.69 390.872 525.094 376.173 542.569C360.308 561.421 342.738 578.811 327.386 598.127C295.104 638.775 269.313 683.779 229.525 714.92C203.757 735.093 169.083 753.418 138.622 750.123C116.717 747.748 118.158 688.571 116.054 669.663C112.595 638.747 105.914 606.263 95.301 577.785C86.1871 553.382 64.5293 545.857 44.6066 540.384C32.1261 536.948 19.0461 535.093 6.97488 529.781C-6.99866 523.626 -10.5266 516.599 -12.4232 498.892Z" stroke="url(#paint5_linear_982_1743)" stroke-width="5"/>
<path fill-rule="evenodd" clip-rule="evenodd" d="M2.72601 479.092C0.0316268 443.377 0.637442 401.145 18.0903 370.25C33.3854 343.19 60.6177 336.065 79.9861 314.748C95.1023 298.117 101.039 271 109.168 249.006C119.104 222.115 133.026 172.448 158.088 162.328C181.403 152.92 205.785 213.017 214.226 230.938C227.589 259.302 238.764 290.408 254.971 316.601C268.927 339.152 287.626 351.618 307.474 365.015C332.779 382.125 371.198 402.413 384.728 435.76C394.813 460.607 362.019 497.548 350.82 514.764C339.108 532.748 330.287 554.065 318.199 571.415C299.125 598.792 268.218 620.836 242.699 637.657C217.89 654.02 185.673 672.131 157.529 671.053C139.032 670.348 135.512 635.479 131.566 618.447C125.912 594.233 118.394 572.535 102.245 556.066C85.8076 539.301 66.4334 531.402 46.0669 524.489C35.6125 520.965 23.6868 518.217 14.3344 511.099C4.00109 503.355 3.76453 492.819 2.72601 479.092Z" stroke="#2E3239" stroke-width="5"/>
<path fill-rule="evenodd" clip-rule="evenodd" d="M21.1856 458.506C21.3351 427.652 27.1147 394.749 44.2522 370.949C58.5258 351.125 80.8679 344.499 94.5319 324.233C105.355 308.188 110.864 285.665 118.11 267.033C126.972 244.2 139.504 204.314 161.541 196.39C183.049 188.676 202.073 232.609 210.319 249.993C222.396 275.483 232.173 302.501 244.359 327.921C253.905 347.865 265.579 360.718 281.124 373.572C299.371 388.67 324.83 405.394 334.578 430.372C341.606 448.457 324.595 477.355 318.418 493.288C314.277 503.989 310.488 514.858 308.406 526.456C306.784 535.488 306.623 543.847 301.925 551.603C290.095 571.111 264.159 573.657 246.561 580.087C223.19 588.621 198.392 598.319 173.934 600.171C158.901 601.328 151.229 584.421 142.649 572.528C132.51 558.468 118.156 548.356 105.62 537.746C89.0744 523.721 71.0684 514.998 52.4415 506.064C44.0395 502.032 34.171 498.077 27.6611 490.062C20.8636 481.752 21.1339 469.642 21.1856 458.506Z" stroke="#2E3239" stroke-width="5"/>
<path fill-rule="evenodd" clip-rule="evenodd" d="M40.5749 440.189C43.5454 414.276 52.8022 389.508 68.4374 371.189C80.4229 357.125 96.3402 349.207 105.96 332.308C114.923 316.556 121.169 298.645 128.572 281.803C136.407 263.998 148.047 234.237 166.117 229.392C185.592 224.174 200.594 254.195 208.901 270.833C219.396 291.859 227.369 314.482 236.752 336.232C243.821 352.444 252.838 367.271 263.504 380.219C274.689 393.868 289.858 406.941 295.517 425.71C300.519 442.334 291.159 462.446 289.507 479.302C287.739 497.312 290.836 516.228 281.038 531.692C260.832 563.583 210.122 557.669 181.131 558.351C152.526 559.054 129.528 539.54 106.38 520.975C91.09 508.718 75.167 498.338 59.4914 486.918C43.5108 475.266 37.9613 462.995 40.5749 440.189Z" stroke="url(#paint6_linear_982_1743)" stroke-width="5"/>
<path fill-rule="evenodd" clip-rule="evenodd" d="M58.5888 425.357C67.3731 387.816 94.809 367.863 114.422 339.492C130.47 316.266 142.503 268.168 169.53 261.805C200.215 254.584 218.584 318.314 229.252 342.906C241.089 370.178 262.171 392.362 270.938 421.233C275.547 436.386 271.589 450.526 269.136 465.672C266.446 482.303 264.424 499.307 255.138 512.693C236.861 539.037 201.165 538.854 175.457 539.579C148.845 540.332 125.303 522.279 104.1 504.262C81.6123 485.181 49.5914 463.856 58.5888 425.357Z" stroke="url(#paint7_linear_982_1743)" stroke-width="5"/>
<path fill-rule="evenodd" clip-rule="evenodd" d="M73.3024 415.177C83.2007 388.43 104.001 366.686 120.879 346.158C134.966 329.045 150.121 294.595 171.6 292.139C196.845 289.243 212.145 326.03 222.078 348.586C231.855 370.75 245.942 394.153 251.355 418.48C257.001 443.82 241.968 477.949 227.631 495.88C211.64 515.876 185.479 523.264 163.031 522.467C139.527 521.655 117.961 505.13 100.16 487.988C81.1294 469.665 61.7912 446.227 73.3024 415.177Z" stroke="#2E3239" stroke-width="5"/>
<path fill-rule="evenodd" clip-rule="evenodd" d="M86.9537 410.142C96.4086 387.895 112.798 369.076 127.909 352.29C139.571 339.33 156.779 317.294 173.604 316.754C192.113 316.159 207.8 334.655 215.158 353.615C222.412 372.314 230.055 395.759 231.141 416.275C233.499 460.95 185.493 510.994 149.444 506.921C115.266 503.059 68.1019 454.466 86.9537 410.142Z" stroke="url(#paint8_linear_982_1743)" stroke-width="5"/>
<path fill-rule="evenodd" clip-rule="evenodd" d="M99.5793 407.689C112.623 378.704 144.306 337.381 173.638 336.4C207.306 335.278 215.758 381.262 211.37 414.586C206.912 448.598 168.094 497.827 137.143 491.175C106.934 484.684 84.1209 442.065 99.5793 407.689Z" stroke="#4C525F" stroke-width="5"/>
<path fill-rule="evenodd" clip-rule="evenodd" d="M112.91 403.002C123.954 378.733 147.52 348.42 172.099 347.502C201.385 346.417 200.833 385.24 194.192 409.404C187.286 434.492 156.872 477.343 131.228 470.577C106.292 463.972 102.327 426.262 112.91 403.002Z" stroke="#2E3239" stroke-width="5"/>
<path fill-rule="evenodd" clip-rule="evenodd" d="M124.519 400.209C131.809 382.892 150.053 361.005 167.396 360.305C188.595 359.463 184.475 390.256 178.997 405.118C172.487 422.803 150.665 453.532 132.351 448.552C114.321 443.65 118.505 414.477 124.519 400.209Z" stroke="url(#paint9_linear_982_1743)" stroke-width="5"/>
<path fill-rule="evenodd" clip-rule="evenodd" d="M1121.76 1389.64C1074.83 1424.38 1021.79 1453.06 971.77 1482.21C898.671 1524.81 824.496 1566.25 747.688 1597.98C706.508 1614.99 653.148 1639.51 608.961 1626.18C592.806 1621.31 578.074 1606.58 563.589 1597.01C543.615 1583.82 523.348 1571.27 503.115 1558.7C462.528 1533.5 421.815 1508.55 381.925 1481.73C362.718 1468.82 344.08 1452.55 324.084 1441.53C312.398 1435.09 298.414 1438.1 285.927 1438.51C257.004 1439.46 228.097 1441.26 199.191 1442.79C163.834 1444.66 128.396 1446.65 92.9988 1445.91C77.0337 1445.57 37.9331 1449.03 29.1442 1432.25C24.4157 1423.21 35.5601 1406.91 40.7263 1399.37C50.2121 1385.52 61.1147 1373.03 71.8733 1360.67C96.7539 1332.08 123.178 1304.85 145.294 1272.92C156.658 1256.51 171.546 1236.45 164.128 1214.04C156.64 1191.4 143.67 1171.8 135.757 1149.25C126.645 1123.29 122.867 1096.27 118.565 1068.75C115.38 1048.4 107.962 1030.38 100.987 1011.62C93.281 990.889 85.2984 969.982 79.9479 948.12C76.4116 933.679 70.7041 907.698 83.0753 898.555C100.653 885.555 133.614 896.082 153.651 899.912C181.342 905.196 208.832 911.929 236.448 917.726C256.497 921.943 276.615 926.567 296.997 927.059C329.855 927.853 362.821 925.105 395.592 922.547C456.274 917.811 516.52 911.388 577.406 911.388C630.748 911.388 754.018 986.701 782.873 999.961C840.467 1026.43 899.593 1051.53 954.094 1086.75C968.838 1096.29 991.53 1108.99 999.288 1128.62C1004.07 1140.71 1001.87 1147.71 1013.16 1155.5C1028.56 1166.13 1048.29 1170.31 1065.34 1175.06C1092.8 1182.72 1120.47 1189.21 1148.05 1196.15C1203.83 1210.14 1259.24 1225.96 1314.79 1241.19C1331.59 1245.8 1351.91 1246.81 1367.92 1254.92C1378.24 1260.13 1377.17 1266.69 1369.18 1274.6C1355.17 1288.49 1335.53 1296.2 1318.98 1304.12C1294.72 1315.72 1270.07 1326.07 1245.41 1336.27C1220.75 1346.48 1195.96 1356.37 1171.29 1366.59C1154.99 1373.32 1136.4 1378.8 1121.76 1389.64Z" stroke="#2E3239" stroke-width="5"/>
<path fill-rule="evenodd" clip-rule="evenodd" d="M1083.14 1382C1033.51 1416.81 978.414 1444.55 925.3 1471.61C857.325 1506.26 787.811 1538.74 716.189 1560.4C674.136 1573.11 624.52 1587.14 581.551 1572.57C566.222 1567.37 554.77 1555.68 541.63 1545.36C526.652 1533.59 511.098 1522.8 495.544 1512.18C463.527 1490.32 431.171 1469.21 398.477 1448.84C381.161 1438.01 362.099 1423.5 342.536 1419.75C326.982 1416.76 309.314 1421.08 293.691 1422.34C265.556 1424.61 237.427 1426.95 209.28 1428.93C176.802 1431.22 144.231 1433.33 111.684 1432.96C93.5433 1432.76 62.4012 1436.13 49.5722 1421.82C38.3793 1409.34 79.1301 1364.19 86.2963 1355.61C108.676 1328.82 132.215 1303.32 153.045 1274.68C165.356 1257.79 180.345 1237.24 185.535 1214.86C189.954 1195.78 181.428 1174.04 176.393 1156.4C170.097 1134.31 165.016 1111.41 157.7 1089.79C151.184 1070.52 140.815 1053.35 131.708 1035.84C121.69 1016.57 111.545 996.984 104.108 975.963C99.5516 963.028 92.0109 941.367 101.067 929.037C111.528 914.821 143.776 924.111 157.031 926.137C183.922 930.304 210.605 936.497 237.312 942.042C281.669 951.247 323.958 959.298 369.127 957.37C427.949 954.85 486.713 948.925 545.524 945.645C567.241 944.421 589.305 941.958 611.04 943.288C623.5 944.055 632.988 948.7 640.235 959.178C650.131 973.479 672.926 981.396 688.78 989.601C713.499 1002.39 738.529 1014.28 763.49 1026.33C818.285 1052.79 874.134 1078.29 926.101 1112.52C942.542 1123.34 961.368 1135.41 973.529 1153.29C980.315 1163.27 978.604 1172.87 982.746 1183.47C988.23 1197.41 1006.26 1203.7 1017.04 1208.26C1037.84 1217.07 1059.49 1222.98 1080.98 1228.51C1129.6 1241.02 1178.34 1249.25 1227.75 1255.31C1239.32 1256.72 1284.92 1261.59 1260.97 1285.1C1234.51 1311.07 1196.31 1323.8 1165.16 1338.44C1137.1 1351.6 1109.02 1363.85 1083.14 1382Z" stroke="#4C525F" stroke-width="5"/>
<path fill-rule="evenodd" clip-rule="evenodd" d="M1014.55 1375.56C967.896 1406.19 916.214 1429.04 865.967 1450.9C804.994 1477.42 742.493 1501.07 678.545 1514.31C638.373 1522.62 594.083 1529.01 554.182 1515.2C526.934 1505.77 505.856 1480.27 481.924 1462.74C457.991 1445.2 433.09 1428.74 407.445 1415.01C391.529 1406.5 374.407 1397.92 356.697 1399.04C313.636 1401.77 270.626 1408.27 227.519 1411.42C199.002 1413.53 170.428 1415.27 141.824 1414.75C124.575 1414.44 100.879 1415.7 85.6086 1404.63C68.729 1392.38 158.605 1287.81 167.1 1276.04C188.397 1246.53 214.186 1207.37 210.069 1165.4C206.13 1125.28 189.06 1095.32 169.753 1063.89C158.796 1046.01 123.658 998.232 136.68 974.975C144.119 961.681 168.64 966.283 180.289 967.189C203.247 968.974 226.078 972.81 248.914 976.141C282.212 980.968 316.427 988.423 349.869 990.608C373.155 992.126 396.58 990.096 419.907 990.053C453.355 989.997 486.803 990.306 520.25 990.672C548.335 990.981 576.656 990.672 604.642 993.96C622.041 995.984 635.247 1000.53 647.727 1013.37C658.586 1024.55 674.969 1031.09 688.81 1038.19C711.669 1049.92 734.829 1060.79 757.914 1071.83C806.246 1094.97 855.131 1117.61 901.393 1146.52C922.511 1159.71 958.018 1178.17 962.971 1210.15C964.759 1221.68 966.074 1226.66 975.301 1233.22C988.397 1242.52 1004.08 1246.72 1018.78 1250.36C1053.03 1258.86 1088.28 1257.59 1122.48 1266C1136.4 1269.46 1154.59 1276.94 1138.69 1294.05C1120.14 1314.07 1093.13 1325.07 1070.9 1337.44C1059.81 1343.61 1048.38 1349.39 1037.84 1356.92C1029.75 1362.72 1022.83 1370.16 1014.55 1375.56Z" stroke="url(#paint10_linear_982_1743)" stroke-width="5"/>
<path fill-rule="evenodd" clip-rule="evenodd" d="M926.188 1366C883.085 1390.87 836.275 1408.96 790.305 1425.27C739.245 1443.35 686.954 1458.33 633.971 1464.71C597.386 1469.12 558.406 1470.43 522.898 1456.91C500.443 1448.36 485.22 1430.38 465.897 1415.3C436.734 1392.51 405.181 1374.45 370.145 1378.84C330.866 1383.76 291.458 1387.45 251.922 1389.91C228.073 1391.39 204.132 1392.51 180.255 1391.47C165.158 1390.82 145.709 1389.73 132.575 1381.39C115.003 1370.21 181.009 1285.15 189.237 1272.76C209.643 1242.01 224.601 1209.76 233.341 1171.67C240.469 1140.59 225.908 1116.15 210.886 1092.9C201.547 1078.46 171.371 1042.15 180.819 1023.4C186.001 1013.06 203.079 1013.6 212.251 1013.07C229.731 1012.07 247.287 1013.11 264.767 1013.57C290.579 1014.27 318.055 1009.43 343.648 1013.33C400.368 1021.95 456.943 1029.41 514.014 1035.32C545.474 1038.58 577.125 1041.54 608.303 1047.81C619.496 1050.07 631.057 1052.45 641.663 1057.55C648.486 1060.83 652.206 1066.41 657.963 1070.98C685.416 1092.78 721.252 1103.99 752.171 1117.96C793.276 1136.52 834.599 1154.8 874.61 1176.73C895.654 1188.27 925.048 1201.52 939.528 1225.07C943.904 1232.18 942.039 1237.87 944.791 1244.71C947.958 1252.6 957.579 1254.95 963.792 1257.15C977.892 1262.14 1036.91 1269.69 1009.72 1298.99C996.737 1312.94 980.201 1321.89 965.571 1332.86C960.274 1336.83 955.109 1340.82 950.693 1346.18C943.305 1355.17 936.028 1360.3 926.188 1366Z" stroke="#2E3239" stroke-width="5"/>
<path fill-rule="evenodd" clip-rule="evenodd" d="M832.037 1355.23C746.947 1395.47 647.225 1422.89 554.456 1417.58C523.606 1415.81 490.413 1409.89 463.671 1389.64C447.903 1377.68 435.302 1364.18 416.361 1359.86C402.687 1356.74 387.963 1360.28 374.208 1361.56C354.286 1363.42 334.352 1365.08 314.401 1366.42C289.666 1368.06 264.851 1369.33 240.071 1368.65C222.364 1368.17 197.913 1368.71 182.531 1357.1C164.166 1343.26 210.911 1278.3 217.489 1266.72C233.43 1238.67 244.606 1211.49 248.645 1177.68C249.833 1167.83 253.837 1157.73 253.318 1147.81C252.776 1137.67 247.658 1128.64 242.933 1120.67C236.753 1110.22 215.314 1085.44 221.452 1072.69C224.845 1065.66 237.578 1064.77 244.179 1063.28C256.56 1060.46 269.121 1058.95 281.577 1056.71C302.711 1052.9 323.695 1040.48 344.904 1040.83C401.937 1041.76 459.794 1063.35 515.684 1075.21C548.911 1082.28 582.363 1088.69 615.187 1098.27C625.572 1101.3 636.269 1104.44 646.14 1109.58C653.029 1113.17 657.455 1119.57 663.836 1123.59C688.305 1139.02 716.443 1148.38 742.718 1158.77C776.827 1172.28 811.053 1185.38 844.926 1199.76C866.158 1208.77 893.46 1216.7 911.755 1233.42C925.118 1245.63 915.984 1249.28 908.934 1260.65C905.334 1266.45 906.164 1272.16 904.601 1278.73C902.368 1288.1 896.056 1294.85 890.136 1300.91C881.973 1309.29 871.097 1316.2 864.421 1326.47C862.067 1330.09 862.177 1334.57 860.273 1337.73C854.734 1346.91 840.039 1351.44 832.037 1355.23Z" stroke="#2E3239" stroke-width="5"/>
<path fill-rule="evenodd" clip-rule="evenodd" d="M741.568 1340.89C672.508 1366.19 595.667 1380.6 522.668 1373.91C497.269 1371.58 471.715 1366.17 448.056 1354.28C437.292 1348.89 429.211 1342.88 417.416 1342.56C390.048 1341.81 362.593 1344.42 335.231 1345.05C315.649 1345.5 295.97 1345.66 276.434 1343.74C263.372 1342.46 245.708 1340.92 235.007 1331.15C219.457 1316.91 247.528 1268.5 253.241 1255.13C262.71 1232.95 272.103 1208.29 268.348 1182.63C267.196 1174.78 265.157 1167.85 264.892 1159.85C264.639 1152.97 265.347 1146.62 263.349 1140.05C260.878 1131.9 249.889 1119.25 253.667 1111.75C256.242 1106.62 263.879 1106.38 268.958 1104.74C277.197 1102.08 285.242 1098.59 293.009 1094.31C301.188 1089.78 308.151 1082.77 316.623 1079.03C330.376 1072.96 345.77 1072.39 360.226 1072.42C417.906 1072.53 476.317 1086.42 532.534 1100.94C561.808 1108.5 591.244 1116.56 619.695 1128.03C628.334 1131.51 638.125 1135.01 645.722 1141.44C650.461 1145.45 653.675 1150.46 659.06 1153.48C705.06 1179.2 758.241 1188.75 807.075 1207.32C819.785 1212.16 890.228 1236.59 853.397 1259.57C831.022 1273.53 807.38 1279.88 786.963 1298.99C780.743 1304.79 776.596 1309.6 774.166 1318.46C772.565 1324.36 776.418 1321.37 771.039 1327.54C764.513 1334.95 749.614 1337.94 741.568 1340.89Z" stroke="#2E3239" stroke-width="5"/>
<path fill-rule="evenodd" clip-rule="evenodd" d="M669.763 1325.92C588.909 1346.58 503.285 1347.56 421.155 1329.25C400.451 1324.64 378.903 1325.74 357.945 1324.57C337.581 1323.45 301.376 1325.78 286.586 1306.67C275.861 1292.82 287.498 1263.38 291.524 1247.89C296.652 1228.14 301.134 1207.75 292.713 1188.58C287.781 1177.35 281.024 1166.66 275.734 1155.54C273.204 1150.22 267.995 1142.08 270.167 1137.05C273.759 1128.75 290.565 1125.25 298.72 1121.34C324.783 1108.82 352.383 1105.63 380.249 1105.72C431.718 1105.88 483.453 1114.47 533.94 1126.12C557.168 1131.49 580.72 1137.21 603.122 1146.53C615.799 1151.8 625.149 1161.96 637.254 1167.99C676.231 1187.42 718.107 1197.8 757.754 1215.56C769.23 1220.7 812.094 1237.83 790.5 1258.02C769.594 1277.56 739.1 1275.24 717.362 1293.63C714.902 1295.73 711.858 1298.25 710.432 1301.66C709.589 1303.69 711.073 1307.57 710.432 1308.72C703.756 1321.31 680.025 1323.31 669.763 1325.92Z" stroke="url(#paint11_linear_982_1743)" stroke-width="5"/>
<path fill-rule="evenodd" clip-rule="evenodd" d="M617.378 1312.27C575.898 1319.22 533.506 1320.94 491.327 1321.38C468.272 1321.62 442.941 1323.41 420.383 1316.28C406.525 1311.89 393.141 1308.06 378.856 1305.29C363.486 1302.31 338.739 1300.15 329.379 1284.01C322.387 1271.95 327.18 1247.16 327.434 1232.5C327.705 1216.42 325.003 1204.49 315.701 1192.98C309.852 1185.74 283.02 1159.43 286.121 1151.85C289.072 1144.62 307.768 1143.51 315.851 1141.64C341.401 1135.68 367.291 1133.61 393.28 1133.93C433.53 1134.43 473.93 1139.43 513.551 1148.04C529.932 1151.62 546.861 1155.33 562.508 1162.47C573.046 1167.29 581.834 1175.84 592.302 1180.82C622.28 1195.11 653.979 1204.81 684.061 1219.36C693.716 1224.04 725.172 1236.49 717.631 1255.68C711.343 1271.71 689.957 1276.58 679.448 1287.32C661.572 1305.64 640.174 1308.46 617.378 1312.27Z" stroke="url(#paint12_linear_982_1743)" stroke-width="5"/>
<path fill-rule="evenodd" clip-rule="evenodd" d="M591.246 1303.07C558.342 1307.66 524.672 1309.67 491.285 1309.77C469.738 1309.83 447.006 1310.19 425.861 1304.28C415.24 1301.32 406.01 1294.38 395.958 1289.43C385.607 1284.34 371.323 1278.66 366.849 1267C362.645 1256.03 364.215 1240.03 360.523 1226.81C357.24 1215.08 350.368 1207.84 342.967 1199.91C338.251 1194.84 314.036 1172.9 316.836 1168.06C319.838 1162.88 334.381 1163.3 341.949 1162.58C362.799 1160.57 383.723 1159.93 404.63 1160.66C433.164 1161.73 461.917 1164.71 489.956 1171.46C509.848 1176.24 524.851 1187.62 543.396 1195.97C567.422 1206.82 592.31 1215.39 616.106 1227.26C627.964 1233.17 645.514 1240.77 651.587 1256.03C653.922 1261.88 656.187 1276.75 653.588 1282.6C650.466 1289.63 638.844 1292.61 633.358 1294.41C619.614 1298.92 605.232 1301.11 591.246 1303.07Z" stroke="#2E3239" stroke-width="5"/>
<path fill-rule="evenodd" clip-rule="evenodd" d="M560.421 1291.84C519.288 1297.49 472.814 1302.29 431.555 1290.92C414.882 1286.33 398.277 1272.73 391.478 1254.2C387.955 1244.62 387.198 1233.21 381.937 1223.93C378.041 1217.06 373.084 1210.86 368.195 1205.09C365.441 1201.82 347.798 1183.95 351.2 1180.76C354.792 1177.39 363.605 1178.49 369.624 1178.41C384.042 1178.2 398.518 1178.88 412.891 1180.21C429.415 1181.75 446.329 1183.75 462.354 1189.14C475.281 1193.52 487.06 1202.73 499.648 1208.21C532.743 1222.7 567.616 1234.06 598.685 1255.52C605.294 1260.08 618.364 1266.91 610.424 1277.22C600.543 1290.06 573.129 1290.11 560.421 1291.84Z" stroke="#2E3239" stroke-width="5"/>
<path fill-rule="evenodd" clip-rule="evenodd" d="M524.566 1281.66C495.276 1285.62 462.784 1287.48 433.378 1279.33C418.487 1275.2 405.202 1266.61 398.717 1249.98C394.076 1238.13 392.823 1224.91 386.482 1213.52C384.237 1209.5 375.988 1198.22 380.055 1195.76C388.756 1190.47 408.178 1196.56 420.25 1199.34C438.419 1203.55 453.589 1215.33 470.865 1222.31C497.364 1233.02 530.941 1238.74 555.091 1257C578.365 1274.65 533.111 1280.5 524.566 1281.66Z" stroke="#4C525F" stroke-width="5"/>
<path fill-rule="evenodd" clip-rule="evenodd" d="M491.074 1271.99C466.222 1275.55 422.025 1277.3 407.847 1248.68C405.217 1243.37 397.953 1214.02 404.972 1211.4C410.757 1209.25 419.837 1212.8 426.372 1216.12C438.53 1222.27 449.938 1228.96 462.503 1234.03C473.2 1238.34 484.154 1242.32 494.711 1247.34C499.193 1249.44 507.614 1251.99 510.425 1256.78C517.991 1269.66 498.64 1270.91 491.074 1271.99Z" fill="#01002D"/>
</g>
<defs>
<linearGradient id="paint0_linear_982_1743" x1="1476.15" y1="1741.52" x2="127.452" y2="1569.86" gradientUnits="userSpaceOnUse">
<stop stop-color="#1D85FF"/>
<stop offset="1" stop-color="#8525FF"/>
</linearGradient>
<linearGradient id="paint1_linear_982_1743" x1="1385.56" y1="1502" x2="273.704" y2="1360.29" gradientUnits="userSpaceOnUse">
<stop stop-color="#1D85FF"/>
<stop offset="1" stop-color="#8525FF"/>
</linearGradient>
<linearGradient id="paint2_linear_982_1743" x1="1168.16" y1="814.165" x2="639.542" y2="739.114" gradientUnits="userSpaceOnUse">
<stop stop-color="#1D85FF"/>
<stop offset="1" stop-color="#8525FF"/>
</linearGradient>
<linearGradient id="paint3_linear_982_1743" x1="1086.89" y1="638.224" x2="732.171" y2="586.11" gradientUnits="userSpaceOnUse">
<stop stop-color="#1D85FF"/>
<stop offset="1" stop-color="#8525FF"/>
</linearGradient>
<linearGradient id="paint4_linear_982_1743" x1="1055.61" y1="566.712" x2="771.882" y2="524.242" gradientUnits="userSpaceOnUse">
<stop stop-color="#1D85FF"/>
<stop offset="1" stop-color="#8525FF"/>
</linearGradient>
<linearGradient id="paint5_linear_982_1743" x1="424.468" y1="1028.7" x2="-78.4392" y2="978.639" gradientUnits="userSpaceOnUse">
<stop stop-color="#1D85FF"/>
<stop offset="1" stop-color="#8525FF"/>
</linearGradient>
<linearGradient id="paint6_linear_982_1743" x1="288.941" y1="706.705" x2="5.79432" y2="676.906" gradientUnits="userSpaceOnUse">
<stop stop-color="#1D85FF"/>
<stop offset="1" stop-color="#8525FF"/>
</linearGradient>
<linearGradient id="paint7_linear_982_1743" x1="266.314" y1="664.865" x2="28.295" y2="639.935" gradientUnits="userSpaceOnUse">
<stop stop-color="#1D85FF"/>
<stop offset="1" stop-color="#8525FF"/>
</linearGradient>
<linearGradient id="paint8_linear_982_1743" x1="226.582" y1="592.841" x2="62.9044" y2="575.604" gradientUnits="userSpaceOnUse">
<stop stop-color="#1D85FF"/>
<stop offset="1" stop-color="#8525FF"/>
</linearGradient>
<linearGradient id="paint9_linear_982_1743" x1="181.405" y1="489.052" x2="110.741" y2="482.175" gradientUnits="userSpaceOnUse">
<stop stop-color="#1D85FF"/>
<stop offset="1" stop-color="#8525FF"/>
</linearGradient>
<linearGradient id="paint10_linear_982_1743" x1="1111.7" y1="1774.18" x2="2.67404" y2="1489.26" gradientUnits="userSpaceOnUse">
<stop stop-color="#1D85FF"/>
<stop offset="1" stop-color="#8525FF"/>
</linearGradient>
<linearGradient id="paint11_linear_982_1743" x1="780.026" y1="1448.68" x2="241.833" y2="1286.89" gradientUnits="userSpaceOnUse">
<stop stop-color="#1D85FF"/>
<stop offset="1" stop-color="#8525FF"/>
</linearGradient>
<linearGradient id="paint12_linear_982_1743" x1="705.259" y1="1406.28" x2="265.582" y2="1269.53" gradientUnits="userSpaceOnUse">
<stop stop-color="#1D85FF"/>
<stop offset="1" stop-color="#8525FF"/>
</linearGradient>
</defs>
</svg>
