<svg width="123" height="40" viewBox="0 0 123 40" fill="none" xmlns="http://www.w3.org/2000/svg">
<path d="M0 38.2199V32.2433L8.71373 5.92636H1.25558V0.42691H14.7154V5.92636L5.87611 32.7204H14.7154V38.2199H0Z" fill="white"/>
<path d="M22.5205 30.9124V30.4604V8.18639C22.5205 8.0692 22.5205 7.91853 22.5205 7.73437C22.5372 7.53349 22.5874 7.14844 22.6711 6.57924C22.7715 6.01004 22.9055 5.46596 23.0729 4.94699C23.2404 4.42801 23.5082 3.85881 23.8765 3.2394C24.2448 2.60324 24.6717 2.05916 25.1572 1.60714C25.6594 1.15513 26.3207 0.77846 27.1409 0.47712C27.9614 0.15904 28.8821 0 29.9032 0C30.9245 0 31.8452 0.15067 32.6655 0.452009C33.4858 0.753349 34.1388 1.14676 34.6242 1.63226C35.1265 2.101 35.5618 2.62834 35.9301 3.21429C36.3151 3.80023 36.5914 4.38616 36.7588 4.9721C36.9261 5.55803 37.0517 6.09374 37.1354 6.57924C37.2358 7.04799 37.2861 7.43303 37.2861 7.73437L37.3112 8.18639V30.4604C37.3112 30.5776 37.3028 30.7366 37.2861 30.9374C37.2861 31.1217 37.2358 31.4983 37.1354 32.0676C37.0517 32.6367 36.9261 33.1809 36.7588 33.6997C36.5914 34.202 36.3235 34.7711 35.9552 35.4074C35.5868 36.0269 35.1517 36.5626 34.6494 37.0146C34.1471 37.4666 33.4858 37.8516 32.6655 38.1697C31.8452 38.471 30.9245 38.6217 29.9032 38.6217C28.8821 38.6217 27.9614 38.471 27.1409 38.1697C26.3207 37.8683 25.6594 37.4833 25.1572 37.0146C24.6717 36.529 24.2448 35.9933 23.8765 35.4074C23.5082 34.8214 23.2404 34.2439 23.0729 33.6747C22.9055 33.0887 22.7715 32.5614 22.6711 32.0926C22.5874 31.6071 22.5372 31.2137 22.5205 30.9124ZM28.0701 30.4604C28.0701 30.5273 28.0701 30.6279 28.0701 30.7617C28.0701 30.8789 28.0952 31.0966 28.1455 31.4146C28.2124 31.7327 28.2961 32.0173 28.3965 32.2684C28.5138 32.5029 28.6979 32.7204 28.9491 32.9213C29.2169 33.1221 29.5349 33.2227 29.9032 33.2227C30.2715 33.2227 30.5812 33.1306 30.8324 32.9464C31.1002 32.7456 31.2928 32.5111 31.4099 32.2433C31.5272 31.9754 31.6108 31.7076 31.6611 31.4397C31.7281 31.1719 31.7615 30.9374 31.7615 30.7366V30.4604V8.18639C31.7615 8.10269 31.7615 8.00223 31.7615 7.88504C31.7615 7.76786 31.7281 7.55023 31.6611 7.23214C31.6108 6.89731 31.5272 6.61273 31.4099 6.37834C31.2928 6.12723 31.1002 5.90123 30.8324 5.70033C30.5812 5.49944 30.2715 5.399 29.9032 5.399C29.3174 5.399 28.8737 5.63337 28.5724 6.10211C28.2711 6.55413 28.1119 7.01451 28.0952 7.48326L28.0701 8.18639V30.4604Z" fill="white"/>
<path d="M46.1953 38.2199V0.42691H51.745V13.0078V14.6652H51.9459L52.2222 13.0078L56.8426 0.42691H62.2416L57.144 12.8572L62.9197 38.2199H57.4956L53.6535 21.7717L53.5029 20.9933H53.3522L53.0257 21.7717L51.745 24.8604V38.2199H46.1953Z" fill="white"/>
<path d="M69.6699 0.42691H75.1192L77.9066 12.5056L78.0572 13.8867H78.1578L78.3084 12.5056L81.0958 0.42691H86.5449L80.8949 22.1233V38.2199H75.3452V22.1233L69.6699 0.42691Z" fill="white"/>
<path d="M93.5957 30.9124V30.4604V8.18639C93.5957 8.0692 93.5957 7.91853 93.5957 7.73437C93.6124 7.53349 93.6627 7.14844 93.7464 6.57924C93.8469 6.01004 93.9807 5.46596 94.1481 4.94699C94.3156 4.42801 94.5834 3.85881 94.9517 3.2394C95.32 2.60324 95.7468 2.05916 96.2324 1.60714C96.7347 1.15513 97.3959 0.77846 98.2163 0.47712C99.0366 0.15904 99.9573 0 100.979 0C102 0 102.92 0.15067 103.741 0.452009C104.561 0.753349 105.214 1.14676 105.699 1.63226C106.202 2.101 106.637 2.62834 107.005 3.21429C107.39 3.80023 107.667 4.38616 107.834 4.9721C108.001 5.55803 108.127 6.09374 108.211 6.57924C108.311 7.04799 108.361 7.43303 108.361 7.73437L108.386 8.18639V30.4604C108.386 30.5776 108.378 30.7366 108.361 30.9374C108.361 31.1217 108.311 31.4983 108.211 32.0676C108.127 32.6367 108.001 33.1809 107.834 33.6997C107.667 34.202 107.399 34.7711 107.03 35.4074C106.662 36.0269 106.227 36.5626 105.725 37.0146C105.222 37.4666 104.561 37.8516 103.741 38.1697C102.92 38.471 102 38.6217 100.979 38.6217C99.9573 38.6217 99.0366 38.471 98.2163 38.1697C97.3959 37.8683 96.7347 37.4833 96.2324 37.0146C95.7468 36.529 95.32 35.9933 94.9517 35.4074C94.5834 34.8214 94.3156 34.2439 94.1481 33.6747C93.9807 33.0887 93.8469 32.5614 93.7464 32.0926C93.6627 31.6071 93.6124 31.2137 93.5957 30.9124ZM99.1454 30.4604C99.1454 30.5273 99.1454 30.6279 99.1454 30.7617C99.1454 30.8789 99.1704 31.0966 99.2207 31.4146C99.2877 31.7327 99.3714 32.0173 99.4718 32.2684C99.589 32.5029 99.7731 32.7204 100.024 32.9213C100.292 33.1221 100.61 33.2227 100.979 33.2227C101.347 33.2227 101.657 33.1306 101.908 32.9464C102.175 32.7456 102.368 32.5111 102.485 32.2433C102.602 31.9754 102.686 31.7076 102.736 31.4397C102.803 31.1719 102.837 30.9374 102.837 30.7366V30.4604V8.18639C102.837 8.10269 102.837 8.00223 102.837 7.88504C102.837 7.76786 102.803 7.55023 102.736 7.23214C102.686 6.89731 102.602 6.61273 102.485 6.37834C102.368 6.12723 102.175 5.90123 101.908 5.70033C101.657 5.49944 101.347 5.399 100.979 5.399C100.393 5.399 99.949 5.63337 99.6476 6.10211C99.3463 6.55413 99.1873 7.01451 99.1704 7.48326L99.1454 8.18639V30.4604Z" fill="white"/>
<path d="M116.543 38.2198V32.5196H121.942V38.2198H116.543Z" fill="white"/>
</svg>
